Moderustic-ExBold.ufo
<glyph name="zero" format="2">
  <advance width="627"/>
  <unicode hex="0030"/>
  <outline>
    <contour>
      <point x="39.5" y="350" type="curve" smooth="yes"/>
      <point x="39.5" y="112.69"/>
      <point x="135.047" y="-19"/>
      <point x="315.995" y="-19" type="curve" smooth="yes"/>
      <point x="498.862" y="-19"/>
      <point x="587.5" y="99.4"/>
      <point x="587.5" y="350" type="curve" smooth="yes"/>
      <point x="587.5" y="594.04"/>
      <point x="495.548" y="720"/>
      <point x="319.988" y="720" type="curve" smooth="yes"/>
      <point x="138.13" y="720"/>
      <point x="39.5" y="590.43"/>
    </contour>
    <contour>
      <point x="229.5" y="350" type="curve" smooth="yes"/>
      <point x="229.5" y="530"/>
      <point x="263.704" y="580"/>
      <point x="317.021" y="580" type="curve" smooth="yes"/>
      <point x="370.338" y="580"/>
      <point x="397.5" y="530"/>
      <point x="397.5" y="351" type="curve" smooth="yes"/>
      <point x="397.5" y="197"/>
      <point x="377.38" y="121"/>
      <point x="316.015" y="121" type="curve" smooth="yes"/>
      <point x="253.644" y="121"/>
      <point x="229.5" y="198"/>
    </contour>
  </outline>
</glyph>
<glyph name="one" format="2">
  <advance width="456"/>
  <unicode hex="0031"/>
  <outline>
    <contour>
      <point x="9" y="368" type="line"/>
      <point x="105" y="391"/>
      <point x="147" y="424"/>
      <point x="199" y="478" type="curve"/>
      <point x="199" y="0" type="line"/>
      <point x="389" y="0" type="line"/>
      <point x="389" y="700" type="line"/>
      <point x="222" y="700" type="line"/>
      <point x="165" y="608"/>
      <point x="105" y="535"/>
      <point x="9" y="515" type="curve"/>
    </contour>
  </outline>
</glyph>
<glyph name="equal" format="2">
  <advance width="514"/>
  <unicode hex="003D"/>
  <outline>
    <contour>
      <point x="50" y="137" type="line"/>
      <point x="464" y="137" type="line"/>
      <point x="464" y="173" type="line"/>
      <point x="50" y="173" type="line"/>
    </contour>
    <contour>
      <point x="50" y="393" type="line"/>
      <point x="50" y="357" type="line"/>
      <point x="464" y="357" type="line"/>
      <point x="464" y="393" type="line"/>
    </contour>
  </outline>
</glyph>
<glyph name="A" format="2">
  <advance width="655"/>
  <unicode hex="0041"/>
  <anchor x="328" y="719" name="top"/>
  <anchor x="328" y="-20" name="bottom"/>
  <anchor x="650" y="-2" name="ogonek"/>
  <anchor x="66" y="500" name="topgr"/>
  <outline>
    <contour>
      <point x="193" y="106" type="line"/>
      <point x="459" y="106" type="line"/>
      <point x="415" y="236" type="line"/>
      <point x="237" y="236" type="line"/>
    </contour>
    <contour>
      <point x="224" y="700" type="line"/>
      <point x="-3" y="0" type="line"/>
      <point x="196" y="0" type="line"/>
      <point x="379" y="700" type="line"/>
    </contour>
    <contour>
      <point x="276" y="700" type="line"/>
      <point x="459" y="0" type="line"/>
      <point x="658" y="0" type="line"/>
      <point x="431" y="700" type="line"/>
    </contour>
  </outline>
</glyph>
<glyph name="M" format="2">
  <advance width="908"/>
  <unicode hex="004D"/>
  <anchor x="454" y="719" name="top"/>
  <anchor x="454" y="-20" name="bottom"/>
  <outline>
    <contour>
      <point x="248" y="321" type="line"/>
      <point x="394" y="0" type="line"/>
      <point x="514" y="0" type="line"/>
      <point x="660" y="321" type="line"/>
      <point x="660" y="0" type="line"/>
      <point x="840" y="0" type="line"/>
      <point x="840" y="700" type="line"/>
      <point x="660" y="700" type="line"/>
      <point x="454" y="249" type="line"/>
      <point x="248" y="700" type="line"/>
      <point x="68" y="700" type="line"/>
      <point x="68" y="0" type="line"/>
      <point x="248" y="0" type="line"/>
    </contour>
  </outline>
</glyph>
<glyph name="N" format="2">
  <advance width="752"/>
  <unicode hex="004E"/>
  <anchor x="376" y="719" name="top"/>
  <anchor x="376" y="-20" name="bottom"/>
  <outline>
    <contour>
      <point x="258" y="0" type="line"/>
      <point x="258" y="379" type="line"/>
      <point x="504" y="0" type="line"/>
      <point x="684" y="0" type="line"/>
      <point x="684" y="700" type="line"/>
      <point x="494" y="700" type="line"/>
      <point x="494" y="321" type="line"/>
      <point x="248" y="700" type="line"/>
      <point x="68" y="700" type="line"/>
      <point x="68" y="0" type="line"/>
    </contour>
  </outline>
</glyph>
<glyph name="Q" format="2">
  <advance width="795"/>
  <unicode hex="0051"/>
  <anchor x="398" y="719" name="top"/>
  <anchor x="398" y="-20" name="bottom"/>
  <anchor x="522" y="-2" name="ogonek"/>
  <outline>
    <contour>
      <point x="398.983" y="124" type="curve" smooth="yes"/>
      <point x="290.251" y="124"/>
      <point x="226" y="210.847"/>
      <point x="226" y="352.961" type="curve" smooth="yes"/>
      <point x="226" y="496.061"/>
      <point x="286.297" y="576"/>
      <point x="395.029" y="576" type="curve" smooth="yes"/>
      <point x="505.738" y="576"/>
      <point x="569" y="491.127"/>
      <point x="569" y="346.052" type="curve" smooth="yes"/>
      <point x="569" y="202.952"/>
      <point x="508.703" y="124"/>
    </contour>
    <contour>
      <point x="33" y="350" type="curve" smooth="yes"/>
      <point x="33" y="127"/>
      <point x="181" y="-20"/>
      <point x="397" y="-20" type="curve" smooth="yes"/>
      <point x="614" y="-20"/>
      <point x="762" y="125"/>
      <point x="762" y="350" type="curve" smooth="yes"/>
      <point x="762" y="568"/>
      <point x="618" y="720"/>
      <point x="398" y="720" type="curve" smooth="yes"/>
      <point x="178" y="720"/>
      <point x="33" y="569"/>
    </contour>
    <contour>
      <point x="333" y="-3" type="line"/>
      <point x="333" y="-194"/>
      <point x="396" y="-230"/>
      <point x="644" y="-230" type="curve"/>
      <point x="644" y="-90" type="line"/>
      <point x="523" y="-90"/>
      <point x="493" y="-87"/>
      <point x="493" y="-3" type="curve"/>
    </contour>
  </outline>
</glyph>
<glyph name="T" format="2">
  <advance width="648"/>
  <unicode hex="0054"/>
  <anchor x="324" y="719" name="top"/>
  <anchor x="324" y="-20" name="bottom"/>
  <outline>
    <contour>
      <point x="21" y="700" type="line"/>
      <point x="21" y="560" type="line"/>
      <point x="229" y="560" type="line"/>
      <point x="229" y="0" type="line"/>
      <point x="419" y="0" type="line"/>
      <point x="419" y="560" type="line"/>
      <point x="627" y="560" type="line"/>
      <point x="627" y="700" type="line"/>
    </contour>
  </outline>
</glyph>
<glyph name="W" format="2">
  <advance width="960"/>
  <unicode hex="0057"/>
  <anchor x="480" y="719" name="top"/>
  <anchor x="480" y="-20" name="bottom"/>
  <outline>
    <contour>
      <point x="189" y="0" type="line"/>
      <point x="346" y="0" type="line"/>
      <point x="186" y="700" type="line"/>
      <point x="-12" y="700" type="line"/>
    </contour>
    <contour>
      <point x="232" y="0" type="line"/>
      <point x="381" y="0" type="line"/>
      <point x="546" y="700" type="line"/>
      <point x="392" y="700" type="line"/>
    </contour>
    <contour>
      <point x="580" y="0" type="line"/>
      <point x="729" y="0" type="line"/>
      <point x="569" y="700" type="line"/>
      <point x="415" y="700" type="line"/>
    </contour>
    <contour>
      <point x="615" y="0" type="line"/>
      <point x="772" y="0" type="line"/>
      <point x="973" y="700" type="line"/>
      <point x="775" y="700" type="line"/>
    </contour>
  </outline>
</glyph>
<glyph name="d" format="2">
  <advance width="635"/>
  <unicode hex="0064"/>
  <anchor x="295" y="-20" name="bottom"/>
  <anchor x="288" y="750" name="top"/>
  <anchor x="630" y="750" name="topright"/>
  <outline>
    <contour>
      <point x="392" y="0" type="line"/>
      <point x="582" y="0" type="line"/>
      <point x="582" y="750" type="line"/>
      <point x="392" y="750" type="line"/>
    </contour>
    <contour>
      <point x="424" y="255" type="curve" smooth="yes"/>
      <point x="424" y="432"/>
      <point x="368" y="520"/>
      <point x="255" y="520" type="curve" smooth="yes"/>
      <point x="118" y="520"/>
      <point x="49" y="411"/>
      <point x="49" y="255" type="curve" smooth="yes"/>
      <point x="49" y="99"/>
      <point x="132" y="-20"/>
      <point x="266" y="-20" type="curve" smooth="yes"/>
      <point x="367" y="-20"/>
      <point x="424" y="82"/>
    </contour>
    <contour>
      <point x="239" y="254" type="curve" smooth="yes"/>
      <point x="239" y="334"/>
      <point x="268" y="383"/>
      <point x="316" y="383" type="curve" smooth="yes"/>
      <point x="364" y="383"/>
      <point x="392" y="335"/>
      <point x="392" y="255" type="curve" smooth="yes"/>
      <point x="392" y="168"/>
      <point x="365" y="116"/>
      <point x="320" y="116" type="curve" smooth="yes"/>
      <point x="269" y="116"/>
      <point x="239" y="167"/>
    </contour>
  </outline>
</glyph>
<glyph name="e" format="2">
  <advance width="598"/>
  <unicode hex="0065"/>
  <anchor x="299" y="520" name="top"/>
  <anchor x="299" y="-20" name="bottom"/>
  <anchor x="429" y="-3" name="ogonek"/>
  <outline>
    <contour>
      <point x="215" y="329" type="line"/>
      <point x="219" y="367"/>
      <point x="253" y="390"/>
      <point x="303" y="390" type="curve" smooth="yes"/>
      <point x="353" y="390"/>
      <point x="381" y="367"/>
      <point x="385" y="329" type="curve"/>
    </contour>
    <contour>
      <point x="327" y="120" type="curve" smooth="yes"/>
      <point x="256" y="120"/>
      <point x="215" y="149.667"/>
      <point x="215" y="209" type="curve"/>
      <point x="572" y="209" type="line"/>
      <point x="593.474" y="390.707"/>
      <point x="488.467" y="520"/>
      <point x="301" y="520" type="curve" smooth="yes"/>
      <point x="142" y="520"/>
      <point x="28" y="419"/>
      <point x="28" y="251" type="curve" smooth="yes"/>
      <point x="28" y="81"/>
      <point x="145" y="-20"/>
      <point x="317" y="-20" type="curve" smooth="yes"/>
      <point x="417" y="-20"/>
      <point x="486" y="14"/>
      <point x="542" y="70" type="curve"/>
      <point x="454" y="158" type="line"/>
      <point x="428" y="135.042"/>
      <point x="381" y="120"/>
    </contour>
  </outline>
</glyph>
<glyph name="g" format="2">
  <advance width="634"/>
  <unicode hex="0067"/>
  <anchor x="317" y="520" name="top"/>
  <anchor x="312" y="-220" name="bottom"/>
  <outline>
    <contour>
      <point x="424" y="255" type="curve" smooth="yes"/>
      <point x="424" y="417"/>
      <point x="368" y="520"/>
      <point x="245" y="520" type="curve" smooth="yes"/>
      <point x="118" y="520"/>
      <point x="49" y="411"/>
      <point x="49" y="262" type="curve" smooth="yes"/>
      <point x="49" y="99"/>
      <point x="132" y="-20"/>
      <point x="251" y="-20" type="curve" smooth="yes"/>
      <point x="367" y="-20"/>
      <point x="424" y="92"/>
    </contour>
    <contour>
      <point x="239" y="251" type="curve" smooth="yes"/>
      <point x="239" y="334"/>
      <point x="268" y="383"/>
      <point x="316" y="383" type="curve" smooth="yes"/>
      <point x="363" y="383"/>
      <point x="391" y="335"/>
      <point x="391" y="251" type="curve" smooth="yes"/>
      <point x="391" y="168"/>
      <point x="364" y="116"/>
      <point x="316" y="116" type="curve" smooth="yes"/>
      <point x="269" y="116"/>
      <point x="239" y="167"/>
    </contour>
    <contour>
      <point x="268" y="-85" type="curve" smooth="yes"/>
      <point x="220" y="-85"/>
      <point x="170" y="-67.9792"/>
      <point x="144" y="-42" type="curve"/>
      <point x="56" y="-130" type="line"/>
      <point x="112" y="-186"/>
      <point x="183" y="-220"/>
      <point x="288" y="-220" type="curve" smooth="yes"/>
      <point x="468" y="-220"/>
      <point x="581" y="-120"/>
      <point x="581" y="52" type="curve" smooth="yes"/>
      <point x="581" y="500" type="line"/>
      <point x="391" y="500" type="line"/>
      <point x="391" y="73.6441" type="line" smooth="yes"/>
      <point x="391" y="-42.3644"/>
      <point x="340" y="-85"/>
    </contour>
  </outline>
</glyph>
<glyph name="h" format="2">
  <advance width="635"/>
  <unicode hex="0068"/>
  <anchor x="318" y="-20" name="bottom"/>
  <anchor x="151" y="750" name="top"/>
  <outline>
    <contour>
      <point x="59" y="0" type="line"/>
      <point x="249" y="0" type="line"/>
      <point x="249" y="750" type="line"/>
      <point x="59" y="750" type="line"/>
    </contour>
    <contour>
      <point x="233" y="282" type="line"/>
      <point x="249" y="217" type="line"/>
      <point x="249" y="313.18"/>
      <point x="269" y="380"/>
      <point x="324" y="380" type="curve" smooth="yes"/>
      <point x="364" y="380"/>
      <point x="386" y="344.815"/>
      <point x="386" y="267.407" type="curve" smooth="yes"/>
      <point x="386" y="0" type="line"/>
      <point x="576" y="0" type="line"/>
      <point x="576" y="314" type="line" smooth="yes"/>
      <point x="576" y="458"/>
      <point x="512" y="520"/>
      <point x="418" y="520" type="curve" smooth="yes"/>
      <point x="327" y="520"/>
      <point x="258" y="461"/>
      <point x="231" y="360" type="curve"/>
    </contour>
  </outline>
</glyph>
<glyph name="l" format="2">
  <advance width="350"/>
  <unicode hex="006C"/>
  <anchor x="150" y="750" name="top"/>
  <anchor x="202" y="-20" name="bottom"/>
  <anchor x="280" y="750" name="topright"/>
  <outline>
    <contour>
      <point x="54" y="750" type="line"/>
      <point x="54" y="132" type="line" smooth="yes"/>
      <point x="54" y="26"/>
      <point x="104" y="-20"/>
      <point x="220" y="-20" type="curve" smooth="yes"/>
      <point x="268" y="-20"/>
      <point x="299" y="-12"/>
      <point x="346" y="3" type="curve"/>
      <point x="319" y="133" type="line"/>
      <point x="300" y="123.25"/>
      <point x="290" y="120"/>
      <point x="280" y="120" type="curve" smooth="yes"/>
      <point x="255" y="120"/>
      <point x="244" y="141.033"/>
      <point x="244" y="207.138" type="curve" smooth="yes"/>
      <point x="244" y="750" type="line"/>
    </contour>
  </outline>
</glyph>
<glyph name="q" format="2">
  <advance width="635"/>
  <unicode hex="0071"/>
  <anchor x="280" y="-20" name="bottom"/>
  <anchor x="281" y="520" name="top"/>
  <outline>
    <contour>
      <point x="392" y="500" type="line"/>
      <point x="392" y="-200" type="line"/>
      <point x="582" y="-200" type="line"/>
      <point x="582" y="500" type="line"/>
    </contour>
    <contour>
      <point x="424" y="255" type="curve" smooth="yes"/>
      <point x="424" y="428"/>
      <point x="368" y="520"/>
      <point x="255" y="520" type="curve" smooth="yes"/>
      <point x="118" y="520"/>
      <point x="49" y="411"/>
      <point x="49" y="255" type="curve" smooth="yes"/>
      <point x="49" y="99"/>
      <point x="132" y="-20"/>
      <point x="266" y="-20" type="curve" smooth="yes"/>
      <point x="367" y="-20"/>
      <point x="424" y="82"/>
    </contour>
    <contour>
      <point x="239" y="254" type="curve" smooth="yes"/>
      <point x="239" y="334"/>
      <point x="268" y="383"/>
      <point x="316" y="383" type="curve" smooth="yes"/>
      <point x="364" y="383"/>
      <point x="392" y="335"/>
      <point x="392" y="255" type="curve" smooth="yes"/>
      <point x="392" y="168"/>
      <point x="365" y="116"/>
      <point x="320" y="116" type="curve" smooth="yes"/>
      <point x="269" y="116"/>
      <point x="239" y="167"/>
    </contour>
  </outline>
</glyph>
<glyph name="r" format="2">
  <advance width="422"/>
  <unicode hex="0072"/>
  <anchor x="235" y="520" name="top"/>
  <anchor x="142" y="-20" name="bottom"/>
  <outline>
    <contour>
      <point x="54" y="500" type="line"/>
      <point x="54" y="0" type="line"/>
      <point x="244" y="0" type="line"/>
      <point x="244" y="190" type="line" smooth="yes"/>
      <point x="244" y="316.667"/>
      <point x="303" y="380"/>
      <point x="419" y="380" type="curve"/>
      <point x="419" y="520" type="line"/>
      <point x="325" y="519"/>
      <point x="283" y="476"/>
      <point x="244" y="404" type="curve"/>
      <point x="244" y="500" type="line"/>
    </contour>
  </outline>
</glyph>
<glyph name="x" format="2">
  <advance width="574"/>
  <unicode hex="0078"/>
  <anchor x="287" y="520" name="top"/>
  <anchor x="287" y="-20" name="bottom"/>
  <outline>
    <contour>
      <point x="21" y="500" type="line" name="av01"/>
      <point x="173.503" y="236.012" type="line"/>
      <point x="163.509" y="261.985" type="line"/>
      <point x="12" y="0" type="line" name="ab01"/>
      <point x="226" y="0" type="line"/>
      <point x="288" y="154" type="line" name="iv01"/>
      <point x="348" y="0" type="line" name="ab02"/>
      <point x="564" y="0" type="line"/>
      <point x="412.491" y="261.985" type="line"/>
      <point x="404.497" y="236.012" type="line"/>
      <point x="557" y="500" type="line" name="av02"/>
      <point x="351" y="500" type="line"/>
      <point x="273.652" y="324.41" type="line" name="iv02"/>
      <point x="304.348" y="324.41" type="line"/>
      <point x="227" y="500" type="line"/>
    </contour>
  </outline>
</glyph>
<glyph name="sterling" format="2">
  <advance width="634"/>
  <unicode hex="00A3"/>
  <outline>
    <contour>
      <point x="21" y="379" type="line"/>
      <point x="21" y="279" type="line"/>
      <point x="495" y="279" type="line"/>
      <point x="495" y="379" type="line"/>
    </contour>
    <contour>
      <point x="330" y="579" type="curve" smooth="yes"/>
      <point x="372" y="579"/>
      <point x="419" y="562"/>
      <point x="477" y="493" type="curve"/>
      <point x="583" y="599" type="line"/>
      <point x="505" y="689"/>
      <point x="415" y="720"/>
      <point x="316" y="720" type="curve" smooth="yes"/>
      <point x="153" y="720"/>
      <point x="57" y="637"/>
      <point x="57" y="520" type="curve" smooth="yes"/>
      <point x="57" y="462"/>
      <point x="81" y="407"/>
      <point x="114" y="347" type="curve" smooth="yes"/>
      <point x="137" y="305"/>
      <point x="162" y="265"/>
      <point x="162" y="210" type="curve" smooth="yes"/>
      <point x="162" y="130"/>
      <point x="110" y="86"/>
      <point x="50" y="46" type="curve"/>
      <point x="50" y="-44" type="line"/>
      <point x="109" y="32"/>
      <point x="144" y="50"/>
      <point x="182" y="50" type="curve" smooth="yes"/>
      <point x="261" y="50"/>
      <point x="272" y="-26"/>
      <point x="400" y="-26" type="curve" smooth="yes"/>
      <point x="504" y="-26"/>
      <point x="585" y="24"/>
      <point x="614" y="104" type="curve"/>
      <point x="584" y="154" type="line"/>
      <point x="556" y="118"/>
      <point x="509" y="91"/>
      <point x="458" y="91" type="curve" smooth="yes"/>
      <point x="377" y="91"/>
      <point x="415" y="157"/>
      <point x="329" y="157" type="curve"/>
      <point x="344" y="180"/>
      <point x="352" y="191"/>
      <point x="352" y="224" type="curve" smooth="yes"/>
      <point x="352" y="341"/>
      <point x="248" y="412"/>
      <point x="248" y="504" type="curve" smooth="yes"/>
      <point x="248" y="551"/>
      <point x="276" y="579"/>
    </contour>
  </outline>
</glyph>
<glyph name="degree" format="2">
  <advance width="483"/>
  <unicode hex="00B0"/>
  <outline>
    <contour>
      <point x="57" y="556" type="curve" smooth="yes"/>
      <point x="57" y="458"/>
      <point x="140" y="390"/>
      <point x="248" y="390" type="curve" smooth="yes"/>
      <point x="355" y="390"/>
      <point x="428" y="458"/>
      <point x="428" y="556" type="curve" smooth="yes"/>
      <point x="428" y="653"/>
      <point x="357" y="719"/>
      <point x="248" y="719" type="curve" smooth="yes"/>
      <point x="139" y="719"/>
      <point x="57" y="653"/>
    </contour>
    <contour>
      <point x="165" y="555" type="curve" smooth="yes"/>
      <point x="165" y="613"/>
      <point x="200" y="635"/>
      <point x="244" y="635" type="curve" smooth="yes"/>
      <point x="288" y="635"/>
      <point x="321" y="613"/>
      <point x="321" y="555" type="curve" smooth="yes"/>
      <point x="321" y="497"/>
      <point x="288" y="474"/>
      <point x="244" y="474" type="curve" smooth="yes"/>
      <point x="199" y="474"/>
      <point x="165" y="497"/>
    </contour>
  </outline>
</glyph>
<glyph name="paragraph" format="2">
  <advance width="590"/>
  <unicode hex="00B6"/>
  <outline>
    <contour>
      <point x="50" y="523" type="curve" smooth="yes"/>
      <point x="50" y="383"/>
      <point x="108" y="282"/>
      <point x="308" y="282" type="curve" smooth="yes"/>
      <point x="338" y="282" type="line"/>
      <point x="338" y="-132" type="line"/>
      <point x="386" y="-132" type="line"/>
      <point x="386" y="731" type="line"/>
      <point x="476" y="731" type="line"/>
      <point x="476" y="-132" type="line"/>
      <point x="524" y="-132" type="line"/>
      <point x="524" y="751" type="line"/>
      <point x="308" y="751" type="line" smooth="yes"/>
      <point x="129" y="751"/>
      <point x="50" y="663"/>
    </contour>
  </outline>
</glyph>
<glyph name="ae" format="2">
  <advance width="996"/>
  <unicode hex="00E6"/>
  <anchor x="497" y="520" name="top"/>
  <anchor x="489" y="-20" name="bottom"/>
  <outline>
    <contour>
      <point x="402" y="0" type="line"/>
      <point x="592" y="0" type="line"/>
      <point x="592" y="500" type="line"/>
      <point x="402" y="500" type="line"/>
    </contour>
    <contour>
      <point x="434" y="258" type="curve" smooth="yes"/>
      <point x="434" y="432"/>
      <point x="376" y="520"/>
      <point x="255" y="520" type="curve" smooth="yes"/>
      <point x="120" y="520"/>
      <point x="49" y="411"/>
      <point x="49" y="262" type="curve" smooth="yes"/>
      <point x="49" y="99"/>
      <point x="134" y="-20"/>
      <point x="259" y="-20" type="curve" smooth="yes"/>
      <point x="375" y="-20"/>
      <point x="434" y="82"/>
    </contour>
    <contour>
      <point x="239" y="251" type="curve" smooth="yes"/>
      <point x="239" y="334"/>
      <point x="270" y="383"/>
      <point x="321" y="383" type="curve" smooth="yes"/>
      <point x="372" y="383"/>
      <point x="402" y="335"/>
      <point x="402" y="251" type="curve" smooth="yes"/>
      <point x="402" y="168"/>
      <point x="373" y="116"/>
      <point x="322" y="116" type="curve" smooth="yes"/>
      <point x="271" y="116"/>
      <point x="239" y="167"/>
    </contour>
    <contour>
      <point x="592" y="329" type="line"/>
      <point x="596" y="367"/>
      <point x="630" y="390"/>
      <point x="688" y="390" type="curve" smooth="yes"/>
      <point x="743" y="390"/>
      <point x="779" y="367"/>
      <point x="783" y="329" type="curve"/>
    </contour>
    <contour>
      <point x="714" y="110" type="curve" smooth="yes"/>
      <point x="637" y="110"/>
      <point x="593" y="143"/>
      <point x="593" y="209" type="curve"/>
      <point x="972" y="209" type="line"/>
      <point x="981" y="414"/>
      <point x="870" y="520"/>
      <point x="719" y="520" type="curve" smooth="yes"/>
      <point x="577.81" y="520"/>
      <point x="476" y="419"/>
      <point x="476" y="251" type="curve" smooth="yes"/>
      <point x="476" y="81"/>
      <point x="581.722" y="-20"/>
      <point x="736.388" y="-20" type="curve" smooth="yes"/>
      <point x="826.447" y="-20"/>
      <point x="889.097" y="14"/>
      <point x="940" y="70" type="curve"/>
      <point x="852" y="158" type="line"/>
      <point x="824" y="129"/>
      <point x="774" y="110"/>
    </contour>
  </outline>
</glyph>
<glyph name="Lslash" format="2">
  <advance width="554"/>
  <unicode hex="0141"/>
  <outline>
    <component base="L"/>
    <contour>
      <point x="0" y="280" type="line"/>
      <point x="0" y="231" type="line"/>
      <point x="413" y="510" type="line"/>
      <point x="413" y="559" type="line"/>
    </contour>
  </outline>
</glyph>
<glyph name="dotlessj" format="2">
  <advance width="300"/>
  <unicode hex="0237"/>
  <anchor x="157" y="520" name="top"/>
  <anchor x="100" y="-217" name="bottom"/>
  <outline>
    <contour>
      <point x="251" y="500" type="line"/>
      <point x="61" y="500" type="line"/>
      <point x="61" y="7" type="line" smooth="yes"/>
      <point x="61" y="-59"/>
      <point x="55" y="-81"/>
      <point x="16" y="-81" type="curve" smooth="yes"/>
      <point x="1" y="-81"/>
      <point x="-15" y="-79"/>
      <point x="-34" y="-73" type="curve"/>
      <point x="-71" y="-198" type="line"/>
      <point x="-24" y="-212"/>
      <point x="0" y="-221"/>
      <point x="68" y="-221" type="curve" smooth="yes"/>
      <point x="187" y="-221"/>
      <point x="251" y="-174"/>
      <point x="251" y="-68" type="curve" smooth="yes"/>
    </contour>
  </outline>
</glyph>
<glyph name="tildecomb" format="2">
  <advance width="443"/>
  <unicode hex="0303"/>
  <anchor x="222" y="675" name="top"/>
  <anchor x="222" y="500" name="_top"/>
  <outline>
    <contour>
      <point x="39" y="562" type="line"/>
      <point x="39" y="662.114"/>
      <point x="92" y="708"/>
      <point x="142" y="708" type="curve" smooth="yes"/>
      <point x="198" y="708"/>
      <point x="228" y="664"/>
      <point x="271" y="664" type="curve" smooth="yes"/>
      <point x="294" y="664"/>
      <point x="302" y="677.657"/>
      <point x="305" y="700" type="curve"/>
      <point x="406" y="700" type="line"/>
      <point x="406" y="600.611"/>
      <point x="354" y="554"/>
      <point x="300" y="554" type="curve" smooth="yes"/>
      <point x="243" y="554"/>
      <point x="212" y="598"/>
      <point x="175" y="598" type="curve" smooth="yes"/>
      <point x="156" y="598"/>
      <point x="143" y="585"/>
      <point x="140" y="562" type="curve"/>
    </contour>
  </outline>
</glyph>
<glyph name="ogonekcomb" format="2">
  <advance width="209"/>
  <unicode hex="0328"/>
  <anchor x="199" y="0" name="_ogonek"/>
  <outline>
    <contour>
      <point x="132.637" y="-203" type="curve"/>
      <point x="207" y="-180" type="line"/>
      <point x="164.672" y="-166"/>
      <point x="144" y="-135"/>
      <point x="144" y="-101" type="curve" smooth="yes"/>
      <point x="144" y="-64"/>
      <point x="167.619" y="-21"/>
      <point x="206" y="3" type="curve"/>
      <point x="206" y="3"/>
      <point x="153.744" y="5"/>
      <point x="146.709" y="6" type="curve"/>
      <point x="50.2365" y="-11"/>
      <point x="2" y="-50"/>
      <point x="2" y="-102" type="curve" smooth="yes"/>
      <point x="2" y="-155"/>
      <point x="53.25" y="-193"/>
    </contour>
  </outline>
</glyph>
<glyph name="numeral-greek" format="2">
  <advance width="243"/>
  <unicode hex="0374"/>
  <outline>
    <contour>
      <point x="236" y="715" type="line"/>
      <point x="127" y="715" type="line"/>
      <point x="6" y="498" type="line"/>
      <point x="157" y="498" type="line"/>
    </contour>
  </outline>
</glyph>
<glyph name="Xi" format="2">
  <advance width="593"/>
  <unicode hex="039E"/>
  <outline>
    <contour>
      <point x="45" y="560" type="line"/>
      <point x="548" y="560" type="line"/>
      <point x="548" y="700" type="line"/>
      <point x="45" y="700" type="line"/>
    </contour>
    <contour>
      <point x="45" y="140" type="line"/>
      <point x="45" y="0" type="line"/>
      <point x="548" y="0" type="line"/>
      <point x="548" y="140" type="line"/>
    </contour>
    <contour>
      <point x="493" y="281" type="line"/>
      <point x="493" y="417" type="line"/>
      <point x="101" y="417" type="line"/>
      <point x="101" y="281" type="line"/>
    </contour>
  </outline>
</glyph>
<glyph name="Psi" format="2">
  <advance width="883"/>
  <unicode hex="03A8"/>
  <anchor x="442" y="720" name="topgr"/>
  <outline>
    <contour>
      <point x="346" y="0" type="line"/>
      <point x="536" y="0" type="line"/>
      <point x="536" y="700" type="line"/>
      <point x="346" y="700" type="line"/>
    </contour>
    <contour>
      <point x="60" y="701" type="line"/>
      <point x="60" y="432" type="line" smooth="yes"/>
      <point x="60" y="258"/>
      <point x="211" y="150"/>
      <point x="441" y="150" type="curve" smooth="yes"/>
      <point x="671" y="150"/>
      <point x="823" y="258"/>
      <point x="823" y="432" type="curve" smooth="yes"/>
      <point x="823" y="701" type="line"/>
      <point x="633" y="701" type="line"/>
      <point x="633" y="431" type="line" smooth="yes"/>
      <point x="633" y="338"/>
      <point x="564" y="290"/>
      <point x="444" y="290" type="curve" smooth="yes"/>
      <point x="318" y="290"/>
      <point x="250" y="336"/>
      <point x="250" y="431" type="curve" smooth="yes"/>
      <point x="250" y="701" type="line"/>
    </contour>
  </outline>
</glyph>
<glyph name="alpha" format="2">
  <advance width="673"/>
  <unicode hex="03B1"/>
  <anchor x="310" y="520" name="topgr"/>
  <outline>
    <contour>
      <point x="261" y="-20" type="curve" smooth="yes"/>
      <point x="147" y="-20"/>
      <point x="49" y="84"/>
      <point x="49" y="253" type="curve" smooth="yes"/>
      <point x="49" y="417"/>
      <point x="141" y="520"/>
      <point x="263" y="520" type="curve" smooth="yes"/>
      <point x="364.321" y="520"/>
      <point x="451.642" y="448.577"/>
      <point x="514.561" y="350" type="curve" smooth="yes"/>
      <point x="580.806" y="246.211"/>
      <point x="620" y="112.321"/>
      <point x="620" y="0" type="curve"/>
      <point x="431" y="0" type="line"/>
      <point x="431" y="64.4724"/>
      <point x="431.94" y="157.378"/>
      <point x="419.125" y="236" type="curve" smooth="yes"/>
      <point x="405.505" y="319.569"/>
      <point x="376.345" y="387"/>
      <point x="314" y="387" type="curve" smooth="yes"/>
      <point x="264" y="387"/>
      <point x="239" y="343"/>
      <point x="239" y="249" type="curve" smooth="yes"/>
      <point x="239" y="156"/>
      <point x="263" y="114"/>
      <point x="311" y="114" type="curve" smooth="yes"/>
      <point x="377.155" y="114"/>
      <point x="406.535" y="191.499"/>
      <point x="419.582" y="282.998" type="curve" smooth="yes"/>
      <point x="430.201" y="357.471"/>
      <point x="430" y="441.219"/>
      <point x="430" y="500" type="curve"/>
      <point x="620" y="500" type="line"/>
      <point x="620" y="428.136"/>
      <point x="603.455" y="350.167"/>
      <point x="574.847" y="277" type="curve" smooth="yes"/>
      <point x="512.293" y="117.017"/>
      <point x="392.061" y="-20"/>
    </contour>
  </outline>
</glyph>
<glyph name="zeta" format="2">
  <advance width="560"/>
  <unicode hex="03B6"/>
  <anchor x="280" y="721" name="topgr"/>
  <outline>
    <contour>
      <point x="343" y="111" type="curve" smooth="yes"/>
      <point x="445" y="111"/>
      <point x="521" y="39"/>
      <point x="521" y="-62" type="curve" smooth="yes"/>
      <point x="521" y="-127"/>
      <point x="492.667" y="-176"/>
      <point x="471.889" y="-200" type="curve"/>
      <point x="300" y="-200" type="line"/>
      <point x="324" y="-165"/>
      <point x="344" y="-142"/>
      <point x="344" y="-99" type="curve" smooth="yes"/>
      <point x="344" y="-45"/>
      <point x="314.686" y="-20"/>
      <point x="250.823" y="-20" type="curve" smooth="yes"/>
      <point x="126.238" y="-20"/>
      <point x="54" y="79"/>
      <point x="54" y="212" type="curve" smooth="yes"/>
      <point x="54" y="349"/>
      <point x="126" y="463"/>
      <point x="286" y="570" type="curve"/>
      <point x="39" y="570" type="line"/>
      <point x="39" y="700" type="line"/>
      <point x="502" y="700" type="line"/>
      <point x="502" y="580" type="line"/>
      <point x="358" y="492"/>
      <point x="244" y="346"/>
      <point x="244" y="206" type="curve" smooth="yes"/>
      <point x="244" y="146"/>
      <point x="264" y="111"/>
    </contour>
  </outline>
</glyph>
<glyph name="sigmafinal" format="2">
  <advance width="590"/>
  <unicode hex="03C2"/>
  <anchor x="295" y="520" name="topgr"/>
  <outline>
    <contour>
      <point x="336" y="390" type="curve" smooth="yes"/>
      <point x="267" y="390"/>
      <point x="219" y="356.846"/>
      <point x="219" y="252.473" type="curve" smooth="yes"/>
      <point x="219" y="165.161"/>
      <point x="252" y="110"/>
      <point x="353" y="110" type="curve" smooth="yes"/>
      <point x="484" y="110"/>
      <point x="551" y="33.2476"/>
      <point x="551" y="-62.4437" type="curve" smooth="yes"/>
      <point x="551" y="-127.235"/>
      <point x="522.667" y="-176.077"/>
      <point x="501.889" y="-200" type="curve"/>
      <point x="330" y="-200" type="line"/>
      <point x="354" y="-165"/>
      <point x="374" y="-142"/>
      <point x="374" y="-99" type="curve" smooth="yes"/>
      <point x="374" y="-49"/>
      <point x="345.943" y="-20"/>
      <point x="273.202" y="-20" type="curve" smooth="yes"/>
      <point x="132.916" y="-20"/>
      <point x="29" y="89"/>
      <point x="29" y="258" type="curve" smooth="yes"/>
      <point x="29" y="425"/>
      <point x="127" y="520"/>
      <point x="306" y="520" type="curve" smooth="yes"/>
      <point x="405" y="520"/>
      <point x="481" y="491"/>
      <point x="531" y="430" type="curve"/>
      <point x="443" y="342" type="line"/>
      <point x="420" y="375"/>
      <point x="376" y="390"/>
    </contour>
  </outline>
</glyph>
<glyph name="Kaisymbol" format="2">
  <advance width="670"/>
  <unicode hex="03CF"/>
  <outline>
    <contour>
      <point x="450" y="0" type="line"/>
      <point x="450" y="-51"/>
      <point x="419" y="-80"/>
      <point x="307" y="-80" type="curve" smooth="yes"/>
      <point x="209" y="-80"/>
      <point x="118" y="-58"/>
      <point x="49" y="-9" type="curve"/>
      <point x="49" y="-133" type="line"/>
      <point x="107" y="-187"/>
      <point x="209" y="-220"/>
      <point x="330" y="-220" type="curve" smooth="yes"/>
      <point x="530" y="-220"/>
      <point x="669" y="-131"/>
      <point x="669" y="0" type="curve"/>
      <point x="550" y="17" type="line"/>
    </contour>
    <contour>
      <point x="48" y="0" type="line"/>
      <point x="238" y="0" type="line"/>
      <point x="238" y="700" type="line"/>
      <point x="48" y="700" type="line"/>
    </contour>
    <contour>
      <point x="130" y="426" type="line"/>
      <point x="119" y="282" type="line"/>
      <point x="294" y="282" type="line"/>
      <point x="450" y="0" type="line"/>
      <point x="669" y="0" type="line"/>
      <point x="457" y="367" type="line"/>
      <point x="665" y="700" type="line"/>
      <point x="464" y="700" type="line"/>
      <point x="306" y="426" type="line"/>
    </contour>
  </outline>
</glyph>
<glyph name="kaisymbol" format="2">
  <advance width="594"/>
  <unicode hex="03D7"/>
  <outline>
    <contour>
      <point x="380" y="1" type="line"/>
      <point x="380" y="-67"/>
      <point x="349.799" y="-76"/>
      <point x="230" y="-76" type="curve"/>
      <point x="230" y="-210" type="line"/>
      <point x="441" y="-210"/>
      <point x="592" y="-141"/>
      <point x="592" y="0" type="curve"/>
    </contour>
    <contour>
      <point x="244" y="0" type="line"/>
      <point x="244" y="500" type="line"/>
      <point x="54" y="500" type="line"/>
      <point x="54" y="0" type="line"/>
    </contour>
    <contour>
      <point x="122" y="323" type="line"/>
      <point x="124" y="189" type="line"/>
      <point x="288" y="189" type="line" name="iv01"/>
      <point x="380" y="0" type="line" name="ab02"/>
      <point x="592" y="0" type="line"/>
      <point x="458" y="263" type="line"/>
      <point x="579" y="500" type="line" name="av02"/>
      <point x="390" y="500" type="line"/>
      <point x="315" y="323" type="line" name="iv02"/>
    </contour>
  </outline>
</glyph>
<glyph name="Becyr" format="2">
  <advance width="633"/>
  <unicode hex="0411"/>
  <outline>
    <component base="Softcyr"/>
    <contour>
      <point x="118" y="559" type="line"/>
      <point x="545" y="559" type="line"/>
      <point x="545" y="700" type="line"/>
      <point x="85" y="700" type="line"/>
      <point x="85" y="694" type="line"/>
    </contour>
  </outline>
</glyph>
<glyph name="Decyr" format="2">
  <advance width="864"/>
  <unicode hex="0414"/>
  <outline>
    <contour>
      <point x="360" y="560" type="line"/>
      <point x="520" y="560" type="line"/>
      <point x="520" y="140" type="line"/>
      <point x="332" y="140" type="line"/>
      <point x="407" y="218"/>
      <point x="423" y="313"/>
      <point x="423" y="682" type="curve"/>
    </contour>
    <contour>
      <point x="151" y="141" type="curve"/>
      <point x="66" y="141"/>
      <point x="19" y="117"/>
      <point x="19" y="-140" type="curve"/>
      <point x="165" y="-140" type="line"/>
      <point x="165" y="-47"/>
      <point x="162" y="0"/>
      <point x="221" y="0" type="curve" smooth="yes"/>
      <point x="634" y="0" type="line" smooth="yes"/>
      <point x="705" y="0"/>
      <point x="697" y="-42"/>
      <point x="697" y="-140" type="curve"/>
      <point x="843" y="-140" type="line"/>
      <point x="843" y="117"/>
      <point x="811" y="139"/>
      <point x="711" y="139" type="curve"/>
      <point x="711" y="700" type="line"/>
      <point x="232" y="700" type="line"/>
      <point x="232" y="670" type="line" smooth="yes"/>
      <point x="232" y="299"/>
      <point x="219" y="201"/>
    </contour>
  </outline>
</glyph>
<glyph name="Icyr" format="2">
  <advance width="752"/>
  <unicode hex="0418"/>
  <anchor x="376" y="719" name="top"/>
  <anchor x="376" y="-20" name="bottom"/>
  <outline>
    <contour>
      <point x="686" y="0" type="line"/>
      <point x="686" y="700" type="line"/>
      <point x="505.159" y="700" type="line"/>
      <point x="256" y="321" type="line"/>
      <point x="256" y="700" type="line"/>
      <point x="66" y="700" type="line"/>
      <point x="66" y="0" type="line"/>
      <point x="246.845" y="0" type="line"/>
      <point x="496" y="379" type="line"/>
      <point x="496" y="0" type="line"/>
    </contour>
  </outline>
</glyph>
<glyph name="Kacyr" format="2">
  <advance width="640"/>
  <unicode hex="041A"/>
  <anchor x="320" y="719" name="top"/>
  <anchor x="320" y="-20" name="bottom"/>
  <outline>
    <contour>
      <point x="48" y="700" type="line"/>
      <point x="48" y="0" type="line"/>
      <point x="238" y="0" type="line"/>
      <point x="238" y="700" type="line"/>
    </contour>
    <contour>
      <point x="197" y="305" type="line"/>
      <point x="407" y="305" type="line" smooth="yes"/>
      <point x="501" y="305"/>
      <point x="564" y="360"/>
      <point x="577" y="473" type="curve"/>
      <point x="598" y="700" type="line"/>
      <point x="416" y="700" type="line"/>
      <point x="402" y="549" type="line"/>
      <point x="394" y="469"/>
      <point x="374" y="445"/>
      <point x="313" y="445" type="curve" smooth="yes"/>
      <point x="197" y="445" type="line"/>
    </contour>
    <contour>
      <point x="325" y="329" type="line"/>
      <point x="445" y="0" type="line"/>
      <point x="639" y="0" type="line"/>
      <point x="513" y="346" type="line"/>
    </contour>
  </outline>
</glyph>
<glyph name="Elcyr" format="2">
  <advance width="760"/>
  <unicode hex="041B"/>
  <outline>
    <contour>
      <point x="169" y="-20" type="curve" smooth="yes"/>
      <point x="336" y="-20"/>
      <point x="370" y="64"/>
      <point x="370" y="560" type="curve"/>
      <point x="502" y="560" type="line"/>
      <point x="502" y="0" type="line"/>
      <point x="692" y="0" type="line"/>
      <point x="692" y="700" type="line"/>
      <point x="180" y="700" type="line"/>
      <point x="180" y="197"/>
      <point x="173" y="125"/>
      <point x="118" y="125" type="curve" smooth="yes"/>
      <point x="99" y="125"/>
      <point x="77" y="136"/>
      <point x="61" y="150" type="curve"/>
      <point x="31" y="9" type="line"/>
      <point x="72" y="-9"/>
      <point x="108" y="-20"/>
    </contour>
  </outline>
</glyph>
<glyph name="decyr" format="2">
  <advance width="780"/>
  <unicode hex="0434"/>
  <anchor x="409" y="-20" name="bottom"/>
  <anchor x="410" y="520" name="top"/>
  <outline>
    <contour>
      <point x="160" y="-140" type="line"/>
      <point x="161" y="-107"/>
      <point x="147" y="0"/>
      <point x="206" y="0" type="curve" smooth="yes"/>
      <point x="568" y="0" type="line" smooth="yes"/>
      <point x="639" y="0"/>
      <point x="620" y="-102"/>
      <point x="620" y="-140" type="curve"/>
      <point x="759" y="-140" type="line"/>
      <point x="759" y="75"/>
      <point x="738" y="132"/>
      <point x="638" y="132" type="curve"/>
      <point x="638" y="500" type="line"/>
      <point x="192" y="500" type="line"/>
      <point x="192" y="327" type="line" smooth="yes"/>
      <point x="192" y="192"/>
      <point x="179" y="163"/>
      <point x="155" y="134" type="curve"/>
      <point x="55" y="134"/>
      <point x="21" y="80"/>
      <point x="21" y="-140" type="curve"/>
    </contour>
    <contour>
      <point x="289" y="133" type="line"/>
      <point x="379" y="148"/>
      <point x="382" y="224"/>
      <point x="382" y="366" type="curve"/>
      <point x="448" y="366" type="line"/>
      <point x="448" y="133" type="line"/>
    </contour>
  </outline>
</glyph>
<glyph name="elcyr" format="2">
  <advance width="600"/>
  <unicode hex="043B"/>
  <outline>
    <contour>
      <point x="49" y="114" type="curve" smooth="yes"/>
      <point x="36" y="114"/>
      <point x="29" y="117"/>
      <point x="23" y="119" type="curve"/>
      <point x="-4" y="-8" type="line"/>
      <point x="23" y="-15"/>
      <point x="57" y="-20"/>
      <point x="98" y="-20" type="curve" smooth="yes"/>
      <point x="254" y="-20"/>
      <point x="291" y="64"/>
      <point x="291" y="368" type="curve"/>
      <point x="357" y="368" type="line"/>
      <point x="357" y="0" type="line"/>
      <point x="547" y="0" type="line"/>
      <point x="547" y="500" type="line"/>
      <point x="102" y="500" type="line"/>
      <point x="102" y="203"/>
      <point x="94" y="114"/>
    </contour>
  </outline>
</glyph>
<glyph name="emcyr" format="2">
  <advance width="689"/>
  <unicode hex="043C"/>
  <outline>
    <contour>
      <point x="243" y="0" type="line"/>
      <point x="243" y="208" type="line"/>
      <point x="317" y="80" type="line"/>
      <point x="373" y="80" type="line"/>
      <point x="447" y="208" type="line"/>
      <point x="447" y="0" type="line"/>
      <point x="637" y="0" type="line"/>
      <point x="637" y="500" type="line"/>
      <point x="467" y="500" type="line"/>
      <point x="345" y="297" type="line"/>
      <point x="223" y="500" type="line"/>
      <point x="53" y="500" type="line"/>
      <point x="53" y="0" type="line"/>
    </contour>
  </outline>
</glyph>
<glyph name="checyr" format="2">
  <advance width="595"/>
  <unicode hex="0447"/>
  <anchor x="298" y="-20" name="bottom"/>
  <anchor x="298" y="520" name="top"/>
  <outline>
    <contour>
      <point x="353" y="0" type="line"/>
      <point x="543" y="0" type="line"/>
      <point x="543" y="500" type="line"/>
      <point x="353" y="500" type="line"/>
    </contour>
    <contour>
      <point x="53" y="500" type="line"/>
      <point x="53" y="340" type="line" smooth="yes"/>
      <point x="53" y="212.044"/>
      <point x="121.902" y="141"/>
      <point x="230.819" y="141" type="curve" smooth="yes"/>
      <point x="324" y="141"/>
      <point x="396" y="193"/>
      <point x="396" y="306" type="curve"/>
      <point x="353" y="365" type="line"/>
      <point x="353" y="300"/>
      <point x="320" y="274"/>
      <point x="290" y="274" type="curve" smooth="yes"/>
      <point x="257.576" y="274"/>
      <point x="243" y="294.469"/>
      <point x="243" y="340" type="curve" smooth="yes"/>
      <point x="243" y="500" type="line"/>
    </contour>
  </outline>
</glyph>
<glyph name="hardcyr" format="2">
  <advance width="600"/>
  <unicode hex="044A"/>
  <outline>
    <component base="softcyr" xOffset="64"/>
    <contour>
      <point x="21" y="500" type="line"/>
      <point x="21" y="368" type="line"/>
      <point x="179" y="368" type="line"/>
      <point x="212" y="497" type="line"/>
      <point x="212" y="500" type="line"/>
    </contour>
  </outline>
</glyph>
<glyph name="softcyr" format="2">
  <advance width="536"/>
  <unicode hex="044C"/>
  <anchor x="268" y="-20" name="bottom"/>
  <anchor x="268" y="520" name="top"/>
  <outline>
    <contour>
      <point x="104" y="350" type="line"/>
      <point x="104" y="220" type="line"/>
      <point x="244.299" y="220" type="line" smooth="yes"/>
      <point x="276.139" y="220"/>
      <point x="304" y="213.864"/>
      <point x="304" y="176.023" type="curve" smooth="yes"/>
      <point x="304" y="137.159"/>
      <point x="282.355" y="130"/>
      <point x="245.952" y="130" type="curve" smooth="yes"/>
      <point x="243" y="130" type="line"/>
      <point x="243" y="500" type="line"/>
      <point x="53" y="500" type="line"/>
      <point x="53" y="0" type="line"/>
      <point x="298" y="0" type="line" smooth="yes"/>
      <point x="416" y="0"/>
      <point x="494" y="71.5909"/>
      <point x="494" y="179.972" type="curve" smooth="yes"/>
      <point x="494" y="283.381"/>
      <point x="417" y="350"/>
      <point x="296" y="350" type="curve" smooth="yes"/>
    </contour>
  </outline>
</glyph>
<glyph name="geupcyr" format="2">
  <advance width="510"/>
  <unicode hex="0491"/>
  <outline>
    <contour>
      <point x="324" y="500" type="line" smooth="yes"/>
      <point x="376" y="500"/>
      <point x="374" y="601"/>
      <point x="374" y="638" type="curve"/>
      <point x="507" y="638" type="line"/>
      <point x="507" y="419"/>
      <point x="482" y="368"/>
      <point x="377" y="368" type="curve" smooth="yes"/>
      <point x="243" y="368" type="line"/>
      <point x="243" y="0" type="line"/>
      <point x="53" y="0" type="line"/>
      <point x="53" y="500" type="line"/>
    </contour>
  </outline>
</glyph>
<glyph name="dagger" format="2">
  <advance width="701"/>
  <unicode hex="2020"/>
  <outline>
    <contour>
      <point x="409" y="-104" type="line"/>
      <point x="438" y="376" type="line"/>
      <point x="650" y="363" type="line"/>
      <point x="650" y="508" type="line"/>
      <point x="440" y="495" type="line"/>
      <point x="445" y="696" type="line"/>
      <point x="260" y="696" type="line"/>
      <point x="264" y="494" type="line"/>
      <point x="50" y="508" type="line"/>
      <point x="50" y="363" type="line"/>
      <point x="266" y="376" type="line"/>
      <point x="295" y="-104" type="line"/>
    </contour>
  </outline>
</glyph>
<glyph name="daggerdbl" format="2">
  <advance width="722"/>
  <unicode hex="2021"/>
  <outline>
    <contour>
      <point x="259" y="-222" type="line"/>
      <point x="445" y="-222" type="line"/>
      <point x="437" y="-20" type="line"/>
      <point x="650" y="-34" type="line"/>
      <point x="650" y="111" type="line"/>
      <point x="435" y="97" type="line"/>
      <point x="410" y="237" type="line"/>
      <point x="435" y="377" type="line"/>
      <point x="650" y="363" type="line"/>
      <point x="650" y="508" type="line"/>
      <point x="437" y="494" type="line"/>
      <point x="445" y="696" type="line"/>
      <point x="259" y="696" type="line"/>
      <point x="268" y="494" type="line"/>
      <point x="50" y="508" type="line"/>
      <point x="50" y="363" type="line"/>
      <point x="270" y="377" type="line"/>
      <point x="295" y="237" type="line"/>
      <point x="270" y="97" type="line"/>
      <point x="50" y="111" type="line"/>
      <point x="50" y="-34" type="line"/>
      <point x="268" y="-20" type="line"/>
    </contour>
  </outline>
</glyph>
<glyph name="fraction" format="2">
  <advance width="216"/>
  <unicode hex="2044"/>
  <outline>
    <contour>
      <point x="-90" y="0" type="line"/>
      <point x="-50" y="0" type="line"/>
      <point x="306" y="700" type="line"/>
      <point x="266" y="700" type="line"/>
    </contour>
  </outline>
</glyph>
<glyph name="trademark" format="2">
  <advance width="1016"/>
  <unicode hex="2122"/>
  <outline>
    <contour>
      <point x="21" y="700" type="line"/>
      <point x="21" y="605" type="line"/>
      <point x="160" y="605" type="line"/>
      <point x="160" y="248" type="line"/>
      <point x="291" y="248" type="line"/>
      <point x="291" y="605" type="line"/>
      <point x="430" y="605" type="line"/>
      <point x="430" y="700" type="line"/>
    </contour>
    <contour>
      <point x="594" y="448" type="line"/>
      <point x="669" y="248" type="line"/>
      <point x="761" y="248" type="line"/>
      <point x="846" y="448" type="line"/>
      <point x="846" y="248" type="line"/>
      <point x="977" y="248" type="line"/>
      <point x="977" y="700" type="line"/>
      <point x="856" y="700" type="line"/>
      <point x="715" y="383" type="line"/>
      <point x="584" y="700" type="line"/>
      <point x="463" y="700" type="line"/>
      <point x="463" y="248" type="line"/>
      <point x="594" y="248" type="line"/>
    </contour>
  </outline>
</glyph>
<glyph name="partialdiff" format="2">
  <advance width="730"/>
  <unicode hex="2202"/>
  <outline>
    <contour>
      <point x="241" y="532" type="line"/>
      <point x="284" y="563"/>
      <point x="331" y="579"/>
      <point x="382" y="579" type="curve" smooth="yes"/>
      <point x="463" y="579"/>
      <point x="538" y="539"/>
      <point x="538" y="439" type="curve" smooth="yes"/>
      <point x="538" y="396"/>
      <point x="524" y="322"/>
      <point x="508" y="292" type="curve"/>
      <point x="516" y="255" type="line"/>
      <point x="532" y="256" type="line"/>
      <point x="542" y="278" type="line"/>
      <point x="566" y="376"/>
      <point x="474" y="467"/>
      <point x="323" y="467" type="curve" smooth="yes"/>
      <point x="161" y="467"/>
      <point x="28" y="362"/>
      <point x="28" y="208" type="curve" smooth="yes"/>
      <point x="28" y="73"/>
      <point x="131" y="-20"/>
      <point x="278" y="-20" type="curve" smooth="yes"/>
      <point x="497" y="-20"/>
      <point x="675" y="188"/>
      <point x="675" y="425" type="curve" smooth="yes"/>
      <point x="675" y="613"/>
      <point x="563" y="720"/>
      <point x="385" y="720" type="curve" smooth="yes"/>
      <point x="306" y="720"/>
      <point x="201" y="699"/>
      <point x="132" y="641" type="curve"/>
    </contour>
    <contour>
      <point x="328" y="345" type="curve" smooth="yes"/>
      <point x="402" y="345"/>
      <point x="445" y="302"/>
      <point x="445" y="236" type="curve" smooth="yes"/>
      <point x="445" y="161"/>
      <point x="390" y="113"/>
      <point x="319" y="113" type="curve" smooth="yes"/>
      <point x="247" y="113"/>
      <point x="198" y="161"/>
      <point x="198" y="228" type="curve" smooth="yes"/>
      <point x="198" y="294"/>
      <point x="247" y="345"/>
    </contour>
  </outline>
</glyph>
<glyph name="C.ss09" format="2">
  <advance width="773"/>
  <anchor x="407" y="-19" name="bottom"/>
  <anchor x="387" y="719" name="top"/>
  <outline>
    <contour>
      <point x="397" y="120" type="curve" smooth="yes"/>
      <point x="293" y="120"/>
      <point x="224" y="215.415"/>
      <point x="224" y="356.026" type="curve" smooth="yes"/>
      <point x="224" y="496.638"/>
      <point x="293" y="580"/>
      <point x="403" y="580" type="curve" smooth="yes"/>
      <point x="470" y="580"/>
      <point x="519" y="546"/>
      <point x="539" y="485" type="curve"/>
      <point x="730" y="485" type="line"/>
      <point x="686" y="623"/>
      <point x="581" y="720"/>
      <point x="400" y="720" type="curve" smooth="yes"/>
      <point x="183" y="720"/>
      <point x="33" y="565"/>
      <point x="33" y="357" type="curve" smooth="yes"/>
      <point x="33" y="146"/>
      <point x="187" y="-20"/>
      <point x="402" y="-20" type="curve" smooth="yes"/>
      <point x="588" y="-20"/>
      <point x="708" y="103"/>
      <point x="740" y="261" type="curve"/>
      <point x="549" y="261" type="line"/>
      <point x="527" y="170"/>
      <point x="474" y="120"/>
    </contour>
  </outline>
</glyph>
<glyph name="Eng.ss07" format="2">
  <advance width="752"/>
  <anchor x="376" y="719" name="top"/>
  <anchor x="358" y="-214" name="bottom"/>
  <outline>
    <contour>
      <point x="258" y="0" type="line"/>
      <point x="258" y="379" type="line"/>
      <point x="504" y="0" type="line"/>
      <point x="683.75" y="134.045" type="line"/>
      <point x="684" y="700" type="line"/>
      <point x="494" y="700" type="line"/>
      <point x="494" y="321" type="line"/>
      <point x="248" y="700" type="line"/>
      <point x="68" y="700" type="line"/>
      <point x="68" y="0" type="line"/>
    </contour>
    <contour>
      <point x="364" y="-224" type="line"/>
      <point x="599" y="-224"/>
      <point x="683.785" y="-141"/>
      <point x="684" y="88" type="curve" smooth="yes"/>
      <point x="684.5" y="620" type="line"/>
      <point x="493.75" y="620" type="line"/>
      <point x="493.75" y="74" type="line" smooth="yes"/>
      <point x="493.75" y="-63"/>
      <point x="453" y="-84"/>
      <point x="364" y="-84" type="curve"/>
    </contour>
  </outline>
</glyph>
<glyph name="Ereversedcyr.ss09" format="2">
  <advance width="773"/>
  <anchor x="387" y="719" name="top"/>
  <outline>
    <contour>
      <point x="611" y="290" type="line"/>
      <point x="256" y="290" type="line"/>
      <point x="256" y="430" type="line"/>
      <point x="611" y="430" type="line"/>
    </contour>
    <contour>
      <point x="376" y="120" type="curve" smooth="yes"/>
      <point x="480" y="120"/>
      <point x="549" y="215.415"/>
      <point x="549" y="356.026" type="curve" smooth="yes"/>
      <point x="549" y="496.638"/>
      <point x="480" y="580"/>
      <point x="370" y="580" type="curve" smooth="yes"/>
      <point x="303" y="580"/>
      <point x="254" y="546"/>
      <point x="234" y="485" type="curve"/>
      <point x="43" y="485" type="line"/>
      <point x="87" y="623"/>
      <point x="192" y="720"/>
      <point x="373" y="720" type="curve" smooth="yes"/>
      <point x="590" y="720"/>
      <point x="740" y="565"/>
      <point x="740" y="357" type="curve" smooth="yes"/>
      <point x="740" y="146"/>
      <point x="586" y="-20"/>
      <point x="371" y="-20" type="curve" smooth="yes"/>
      <point x="185" y="-20"/>
      <point x="65" y="103"/>
      <point x="33" y="261" type="curve"/>
      <point x="224" y="261" type="line"/>
      <point x="246" y="170"/>
      <point x="299" y="120"/>
    </contour>
  </outline>
</glyph>
<glyph name="Euro.ss09" format="2">
  <advance width="730"/>
  <outline>
    <contour>
      <point x="481" y="364" type="line"/>
      <point x="495" y="434" type="line"/>
      <point x="281" y="434" type="line"/>
      <point x="286" y="534"/>
      <point x="334" y="579"/>
      <point x="399" y="579" type="curve" smooth="yes"/>
      <point x="455" y="579"/>
      <point x="495" y="546"/>
      <point x="516" y="485" type="curve"/>
      <point x="697" y="485" type="line"/>
      <point x="657" y="620"/>
      <point x="560" y="720"/>
      <point x="400" y="720" type="curve" smooth="yes"/>
      <point x="229" y="720"/>
      <point x="103" y="604"/>
      <point x="89" y="434" type="curve"/>
      <point x="24" y="434" type="line"/>
      <point x="10" y="364" type="line"/>
    </contour>
    <contour>
      <point x="10" y="270" type="line"/>
      <point x="88" y="270" type="line"/>
      <point x="102" y="100"/>
      <point x="230" y="-20"/>
      <point x="397" y="-20" type="curve" smooth="yes"/>
      <point x="569" y="-20"/>
      <point x="668" y="106"/>
      <point x="697" y="261" type="curve"/>
      <point x="516" y="261" type="line"/>
      <point x="509" y="170"/>
      <point x="459" y="122"/>
      <point x="398" y="122" type="curve" smooth="yes"/>
      <point x="334" y="122"/>
      <point x="286" y="161"/>
      <point x="280" y="270" type="curve"/>
      <point x="455" y="270" type="line"/>
      <point x="469" y="340" type="line"/>
      <point x="24" y="340" type="line"/>
    </contour>
  </outline>
</glyph>
<glyph name="S.ss09" format="2">
  <advance width="590"/>
  <anchor x="279" y="719" name="top"/>
  <anchor x="294" y="-20" name="bottom"/>
  <outline>
    <contour>
      <point x="216" y="198" type="curve"/>
      <point x="26" y="198" type="line"/>
      <point x="48.0838" y="73"/>
      <point x="128.389" y="-20"/>
      <point x="296.025" y="-20" type="curve" smooth="yes"/>
      <point x="460.65" y="-20"/>
      <point x="553" y="70.1503"/>
      <point x="553" y="202.371" type="curve" smooth="yes"/>
      <point x="553" y="343.41"/>
      <point x="441.623" y="383.737"/>
      <point x="348.475" y="417.464" type="curve" smooth="yes"/>
      <point x="281.53" y="441.703"/>
      <point x="224" y="462.534"/>
      <point x="224" y="514.891" type="curve" smooth="yes"/>
      <point x="224" y="553.957"/>
      <point x="245" y="580"/>
      <point x="281" y="580" type="curve" smooth="yes"/>
      <point x="319" y="580"/>
      <point x="337" y="550"/>
      <point x="347" y="502" type="curve"/>
      <point x="538" y="502" type="line"/>
      <point x="516" y="627"/>
      <point x="439" y="720"/>
      <point x="279" y="720" type="curve" smooth="yes"/>
      <point x="121" y="720"/>
      <point x="34" y="629.85"/>
      <point x="34" y="507.646" type="curve" smooth="yes"/>
      <point x="34" y="359.538"/>
      <point x="147.268" y="317.299"/>
      <point x="240.883" y="282.389" type="curve" smooth="yes"/>
      <point x="306.816" y="257.802"/>
      <point x="363" y="236.851"/>
      <point x="363" y="185.109" type="curve" smooth="yes"/>
      <point x="363" y="146.043"/>
      <point x="336.641" y="120"/>
      <point x="294.062" y="120" type="curve" smooth="yes"/>
      <point x="248.441" y="120"/>
      <point x="227.152" y="150"/>
    </contour>
  </outline>
</glyph>
<glyph name="S.ss12" format="2">
  <advance width="590"/>
  <anchor x="295" y="-20" name="bottom"/>
  <anchor x="290" y="719" name="top"/>
  <outline>
    <contour>
      <point x="311" y="-20" type="curve" smooth="yes"/>
      <point x="467" y="-20"/>
      <point x="553" y="72.1536"/>
      <point x="553" y="192.354" type="curve" smooth="yes"/>
      <point x="553" y="334.128"/>
      <point x="451.372" y="375.431"/>
      <point x="365.06" y="410.509" type="curve" smooth="yes"/>
      <point x="301.358" y="436.398"/>
      <point x="246" y="458.896"/>
      <point x="246" y="515.893" type="curve" smooth="yes"/>
      <point x="246" y="555.322"/>
      <point x="269.426" y="575.51"/>
      <point x="315.179" y="575.51" type="curve" smooth="yes"/>
      <point x="382.903" y="575.51"/>
      <point x="448.215" y="541.523"/>
      <point x="523.094" y="481.73" type="curve"/>
      <point x="535.574" y="613.336" type="line"/>
      <point x="481.116" y="678.004"/>
      <point x="383.377" y="720"/>
      <point x="279" y="720" type="curve" smooth="yes"/>
      <point x="139" y="720"/>
      <point x="56" y="637.863"/>
      <point x="56" y="518.664" type="curve" smooth="yes"/>
      <point x="56" y="363.515"/>
      <point x="161.678" y="320.77"/>
      <point x="249.029" y="285.439" type="curve" smooth="yes"/>
      <point x="310.561" y="260.55"/>
      <point x="363" y="239.34"/>
      <point x="363" y="185.109" type="curve" smooth="yes"/>
      <point x="363" y="146.043"/>
      <point x="339.821" y="124.49"/>
      <point x="274.821" y="124.49" type="curve" smooth="yes"/>
      <point x="207.097" y="124.49"/>
      <point x="124.645" y="163.983"/>
      <point x="49.7658" y="223.776" type="curve"/>
      <point x="37.2859" y="92.1695" type="line"/>
      <point x="91.7436" y="27.501"/>
      <point x="206.623" y="-20"/>
    </contour>
  </outline>
</glyph>
<glyph name="Schwa.ss09" format="2">
  <advance width="779"/>
  <anchor x="390" y="719" name="top"/>
  <anchor x="390" y="-20" name="bottom"/>
  <outline>
    <contour>
      <point x="389" y="580" type="curve" smooth="yes"/>
      <point x="503" y="580"/>
      <point x="556" y="505.69"/>
      <point x="556" y="350.013" type="curve" smooth="yes"/>
      <point x="556" y="192.328"/>
      <point x="503" y="120"/>
      <point x="392" y="120" type="curve" smooth="yes"/>
      <point x="294" y="120"/>
      <point x="239" y="175"/>
      <point x="229" y="280" type="curve"/>
      <point x="565" y="280" type="line"/>
      <point x="566" y="417" type="line"/>
      <point x="40" y="417" type="line"/>
      <point x="36" y="402"/>
      <point x="33" y="376"/>
      <point x="33" y="358" type="curve" smooth="yes"/>
      <point x="33" y="125"/>
      <point x="170" y="-20"/>
      <point x="390" y="-20" type="curve" smooth="yes"/>
      <point x="596" y="-20"/>
      <point x="746" y="111"/>
      <point x="746" y="350" type="curve" smooth="yes"/>
      <point x="746" y="582"/>
      <point x="594" y="720"/>
      <point x="393" y="720" type="curve" smooth="yes"/>
      <point x="216" y="720"/>
      <point x="87" y="623"/>
      <point x="55" y="485" type="curve"/>
      <point x="246" y="485" type="line"/>
      <point x="264" y="538"/>
      <point x="307" y="580"/>
    </contour>
  </outline>
</glyph>
<glyph name="a.ss02" format="2">
  <advance width="580"/>
  <anchor x="290" y="520" name="top"/>
  <anchor x="280" y="-20" name="bottom"/>
  <anchor x="514" y="-3" name="ogonek"/>
  <outline>
    <contour>
      <point x="239" y="148" type="curve" smooth="yes"/>
      <point x="239" y="126"/>
      <point x="253" y="114"/>
      <point x="281" y="114" type="curve" smooth="yes"/>
      <point x="322" y="114"/>
      <point x="334" y="140"/>
      <point x="333" y="187" type="curve"/>
      <point x="346" y="110" type="line"/>
      <point x="329" y="28"/>
      <point x="278" y="-20"/>
      <point x="204" y="-20" type="curve" smooth="yes"/>
      <point x="115" y="-20"/>
      <point x="49" y="49"/>
      <point x="49" y="146" type="curve" smooth="yes"/>
      <point x="49" y="243"/>
      <point x="115" y="312"/>
      <point x="206" y="312" type="curve" smooth="yes"/>
      <point x="279" y="312"/>
      <point x="330" y="268"/>
      <point x="347" y="193" type="curve"/>
      <point x="342" y="124" type="line"/>
      <point x="339" y="154"/>
      <point x="316" y="182"/>
      <point x="279" y="182" type="curve" smooth="yes"/>
      <point x="255" y="182"/>
      <point x="239" y="171"/>
    </contour>
    <contour>
      <point x="288" y="520" type="curve" smooth="yes"/>
      <point x="431" y="520"/>
      <point x="521" y="455"/>
      <point x="521" y="352" type="curve" smooth="yes"/>
      <point x="521" y="0" type="line"/>
      <point x="331" y="0" type="line"/>
      <point x="331" y="325" type="line" smooth="yes"/>
      <point x="331" y="374"/>
      <point x="306" y="390"/>
      <point x="265" y="390" type="curve" smooth="yes"/>
      <point x="220" y="390"/>
      <point x="172" y="371"/>
      <point x="146" y="342" type="curve"/>
      <point x="58" y="430" type="line"/>
      <point x="114" y="486"/>
      <point x="184" y="520"/>
    </contour>
  </outline>
</glyph>
<glyph name="a.ss09" format="2">
  <advance width="570"/>
  <anchor x="290" y="520" name="top"/>
  <anchor x="285" y="-20" name="bottom"/>
  <anchor x="505" y="-3" name="ogonek"/>
  <outline>
    <contour>
      <point x="511" y="352" type="line" smooth="yes"/>
      <point x="511" y="455"/>
      <point x="427" y="520"/>
      <point x="296" y="520" type="curve" smooth="yes"/>
      <point x="139" y="520"/>
      <point x="60" y="449"/>
      <point x="53" y="341" type="curve"/>
      <point x="237" y="341" type="line"/>
      <point x="242" y="376"/>
      <point x="259" y="390"/>
      <point x="283" y="390" type="curve" smooth="yes"/>
      <point x="308" y="390"/>
      <point x="321" y="376.827"/>
      <point x="321" y="343.387" type="curve" smooth="yes"/>
      <point x="321" y="238" type="line"/>
      <point x="296" y="285"/>
      <point x="252" y="312"/>
      <point x="195" y="312" type="curve" smooth="yes"/>
      <point x="105" y="312"/>
      <point x="39" y="243"/>
      <point x="39" y="146" type="curve" smooth="yes"/>
      <point x="39" y="49"/>
      <point x="105" y="-20"/>
      <point x="194" y="-20" type="curve" smooth="yes"/>
      <point x="252" y="-20"/>
      <point x="297" y="10"/>
      <point x="321" y="63" type="curve"/>
      <point x="321" y="0" type="line"/>
      <point x="511" y="0" type="line"/>
    </contour>
    <contour>
      <point x="229" y="149.426" type="curve" smooth="yes"/>
      <point x="229" y="172"/>
      <point x="242" y="182"/>
      <point x="265.916" y="182" type="curve" smooth="yes"/>
      <point x="291" y="182"/>
      <point x="311" y="171"/>
      <point x="321" y="155" type="curve"/>
      <point x="317" y="131"/>
      <point x="294" y="114"/>
      <point x="266.285" y="114" type="curve" smooth="yes"/>
      <point x="243" y="114"/>
      <point x="229" y="126"/>
    </contour>
  </outline>
</glyph>
<glyph name="a.ss10" format="2">
  <advance width="568"/>
  <anchor x="284" y="520" name="top"/>
  <anchor x="284" y="-20" name="bottom"/>
  <anchor x="496" y="-3" name="ogonek"/>
  <outline>
    <contour>
      <point x="245.918" y="390" type="curve" smooth="yes"/>
      <point x="216.356" y="390"/>
      <point x="147" y="383"/>
      <point x="83" y="280" type="curve"/>
      <point x="40" y="430" type="line"/>
      <point x="74" y="482"/>
      <point x="170.499" y="520"/>
      <point x="278.535" y="520" type="curve" smooth="yes"/>
      <point x="415.941" y="520"/>
      <point x="503" y="458"/>
      <point x="503" y="352" type="curve" smooth="yes"/>
      <point x="503" y="-10" type="line"/>
      <point x="313" y="73" type="line"/>
      <point x="313" y="202" type="line"/>
      <point x="302" y="181"/>
      <point x="284" y="171"/>
      <point x="263" y="171" type="curve" smooth="yes"/>
      <point x="236" y="171"/>
      <point x="225" y="155"/>
      <point x="225" y="139" type="curve" smooth="yes"/>
      <point x="225" y="122"/>
      <point x="237" y="105"/>
      <point x="263" y="105" type="curve" smooth="yes"/>
      <point x="300" y="105"/>
      <point x="313" y="139"/>
      <point x="313" y="192" type="curve"/>
      <point x="341" y="111" type="line"/>
      <point x="321" y="34"/>
      <point x="290" y="-20"/>
      <point x="202" y="-20" type="curve" smooth="yes"/>
      <point x="106" y="-20"/>
      <point x="35" y="44"/>
      <point x="35" y="137" type="curve" smooth="yes"/>
      <point x="35" y="231"/>
      <point x="109" y="286"/>
      <point x="228" y="286" type="curve" smooth="yes"/>
      <point x="292" y="286"/>
      <point x="313" y="302"/>
      <point x="313" y="338" type="curve" smooth="yes"/>
      <point x="313" y="369"/>
      <point x="295.945" y="390"/>
    </contour>
  </outline>
</glyph>
<glyph name="c.ss10" format="2">
  <advance width="585"/>
  <anchor x="316" y="520" name="top"/>
  <anchor x="316" y="-20" name="bottom"/>
  <outline>
    <contour>
      <point x="329" y="-20" type="curve" smooth="yes"/>
      <point x="420" y="-20"/>
      <point x="512" y="18"/>
      <point x="546" y="70" type="curve"/>
      <point x="503" y="220" type="line"/>
      <point x="449" y="139"/>
      <point x="405" y="110"/>
      <point x="336" y="110" type="curve" smooth="yes"/>
      <point x="272" y="110"/>
      <point x="230" y="165"/>
      <point x="230" y="249" type="curve" smooth="yes"/>
      <point x="230" y="334"/>
      <point x="272" y="390"/>
      <point x="336" y="390" type="curve" smooth="yes"/>
      <point x="405" y="390"/>
      <point x="449" y="361"/>
      <point x="503" y="280" type="curve"/>
      <point x="546" y="430" type="line"/>
      <point x="512" y="482"/>
      <point x="420" y="520"/>
      <point x="329" y="520" type="curve" smooth="yes"/>
      <point x="156" y="520"/>
      <point x="39" y="413"/>
      <point x="39" y="255" type="curve" smooth="yes"/>
      <point x="39" y="89"/>
      <point x="154" y="-20"/>
    </contour>
  </outline>
</glyph>
<glyph name="emdash.case" format="2">
  <advance width="914"/>
  <outline>
    <contour>
      <point x="50" y="342" type="line"/>
      <point x="864" y="342" type="line"/>
      <point x="864" y="376" type="line"/>
      <point x="50" y="376" type="line"/>
    </contour>
  </outline>
</glyph>
<glyph name="f.ss11" format="2">
  <advance width="423"/>
  <anchor x="250" y="750" name="top"/>
  <anchor x="183" y="-20" name="bottom"/>
  <outline>
    <contour>
      <point x="89" y="370" type="line"/>
      <point x="89" y="0" type="line"/>
      <point x="279" y="0" type="line"/>
      <point x="279" y="370" type="line"/>
      <point x="405" y="370" type="line"/>
      <point x="405" y="500" type="line"/>
      <point x="279" y="500" type="line"/>
      <point x="279" y="521" type="line" smooth="yes"/>
      <point x="279" y="564"/>
      <point x="295" y="586"/>
      <point x="324" y="586" type="curve" smooth="yes"/>
      <point x="339" y="586"/>
      <point x="380" y="584"/>
      <point x="421" y="578" type="curve"/>
      <point x="421" y="708" type="line"/>
      <point x="374" y="715"/>
      <point x="335" y="721"/>
      <point x="277" y="721" type="curve" smooth="yes"/>
      <point x="158" y="721"/>
      <point x="89" y="674"/>
      <point x="89" y="578" type="curve" smooth="yes"/>
      <point x="89" y="500" type="line"/>
      <point x="12" y="500" type="line"/>
      <point x="12" y="370" type="line"/>
    </contour>
  </outline>
</glyph>
<glyph name="five.osf" format="2">
  <advance width="615"/>
  <outline>
    <contour>
      <point x="264" y="410" type="line"/>
      <point x="538" y="410" type="line"/>
      <point x="538" y="550" type="line"/>
      <point x="117" y="550" type="line"/>
      <point x="48" y="92" type="line"/>
      <point x="151" y="143"/>
      <point x="222" y="172"/>
      <point x="283" y="172" type="curve" smooth="yes"/>
      <point x="350" y="172"/>
      <point x="380" y="136"/>
      <point x="380" y="76" type="curve" smooth="yes"/>
      <point x="380" y="14"/>
      <point x="348" y="-30"/>
      <point x="272" y="-30" type="curve" smooth="yes"/>
      <point x="211" y="-30"/>
      <point x="177" y="-1"/>
      <point x="128" y="57" type="curve"/>
      <point x="23" y="-48" type="line"/>
      <point x="93" y="-126"/>
      <point x="169" y="-170"/>
      <point x="281.907" y="-170" type="curve" smooth="yes"/>
      <point x="457" y="-170"/>
      <point x="570" y="-70.2114"/>
      <point x="570" y="80.4693" type="curve" smooth="yes"/>
      <point x="570" y="214.186"/>
      <point x="480" y="302"/>
      <point x="350" y="302" type="curve" smooth="yes"/>
      <point x="306" y="302"/>
      <point x="268" y="292.4"/>
      <point x="244" y="278" type="curve"/>
    </contour>
  </outline>
</glyph>
<glyph name="five.ss09" format="2">
  <advance width="594"/>
  <outline>
    <contour>
      <point x="27" y="198" type="line"/>
      <point x="49" y="76"/>
      <point x="125" y="-20"/>
      <point x="297" y="-20" type="curve" smooth="yes"/>
      <point x="467" y="-20"/>
      <point x="564" y="74"/>
      <point x="564" y="224" type="curve" smooth="yes"/>
      <point x="564" y="366"/>
      <point x="476" y="456"/>
      <point x="358" y="456" type="curve" smooth="yes"/>
      <point x="310" y="456"/>
      <point x="269" y="441"/>
      <point x="244" y="415" type="curve"/>
      <point x="265" y="560" type="line"/>
      <point x="494" y="560" type="line"/>
      <point x="514" y="700" type="line"/>
      <point x="92" y="700" type="line"/>
      <point x="31" y="268" type="line"/>
      <point x="221" y="268" type="line"/>
      <point x="236" y="308"/>
      <point x="266" y="332"/>
      <point x="305" y="332" type="curve" smooth="yes"/>
      <point x="356" y="332"/>
      <point x="374" y="290"/>
      <point x="374" y="234" type="curve" smooth="yes"/>
      <point x="374" y="160"/>
      <point x="343" y="120"/>
      <point x="296" y="120" type="curve" smooth="yes"/>
      <point x="256" y="120"/>
      <point x="228" y="148"/>
      <point x="217" y="198" type="curve"/>
    </contour>
  </outline>
</glyph>
<glyph name="five.ss12.osf" format="2">
  <advance width="604"/>
  <outline>
    <contour>
      <point x="259" y="-29" type="curve" smooth="yes"/>
      <point x="339" y="-29"/>
      <point x="383" y="9"/>
      <point x="383" y="73" type="curve" smooth="yes"/>
      <point x="383" y="130"/>
      <point x="347" y="167"/>
      <point x="257" y="167" type="curve" smooth="yes"/>
      <point x="200" y="167"/>
      <point x="135" y="152"/>
      <point x="41" y="113" type="curve"/>
      <point x="134" y="550" type="line"/>
      <point x="553" y="550" type="line"/>
      <point x="525" y="410" type="line"/>
      <point x="298" y="410" type="line"/>
      <point x="271" y="283" type="line"/>
      <point x="296" y="291"/>
      <point x="317" y="297"/>
      <point x="354" y="297" type="curve" smooth="yes"/>
      <point x="489" y="297"/>
      <point x="574" y="217"/>
      <point x="574" y="76" type="curve" smooth="yes"/>
      <point x="574" y="-82"/>
      <point x="468" y="-170"/>
      <point x="301" y="-170" type="curve" smooth="yes"/>
      <point x="176" y="-170"/>
      <point x="93" y="-127"/>
      <point x="18" y="-46" type="curve"/>
      <point x="36" y="78" type="line"/>
      <point x="105" y="3"/>
      <point x="177" y="-29"/>
    </contour>
  </outline>
</glyph>
<glyph name="g.ss12" format="2">
  <advance width="635"/>
  <anchor x="308" y="-220" name="bottom"/>
  <anchor x="317" y="520" name="top"/>
  <outline>
    <contour>
      <point x="424" y="255" type="curve" smooth="yes"/>
      <point x="424" y="424"/>
      <point x="368" y="520"/>
      <point x="262" y="520" type="curve" smooth="yes"/>
      <point x="123" y="520"/>
      <point x="49" y="411"/>
      <point x="49" y="255" type="curve" smooth="yes"/>
      <point x="49" y="99"/>
      <point x="124" y="-20"/>
      <point x="263" y="-20" type="curve" smooth="yes"/>
      <point x="367" y="-20"/>
      <point x="424" y="85"/>
    </contour>
    <contour>
      <point x="239" y="254" type="curve" smooth="yes"/>
      <point x="239" y="340"/>
      <point x="262" y="393"/>
      <point x="317" y="393" type="curve" smooth="yes"/>
      <point x="365" y="393"/>
      <point x="392" y="340"/>
      <point x="392" y="255" type="curve" smooth="yes"/>
      <point x="392" y="167"/>
      <point x="362" y="106"/>
      <point x="316" y="106" type="curve" smooth="yes"/>
      <point x="263" y="106"/>
      <point x="239" y="165"/>
    </contour>
    <contour>
      <point x="269" y="-90" type="curve" smooth="yes"/>
      <point x="200" y="-90"/>
      <point x="152" y="-67"/>
      <point x="84" y="-15" type="curve"/>
      <point x="73" y="-131" type="line"/>
      <point x="122" y="-185"/>
      <point x="198" y="-220"/>
      <point x="289" y="-220" type="curve" smooth="yes"/>
      <point x="484" y="-220"/>
      <point x="582" y="-129"/>
      <point x="582" y="32" type="curve" smooth="yes"/>
      <point x="582" y="500" type="line"/>
      <point x="392" y="500" type="line"/>
      <point x="392" y="41" type="line" smooth="yes"/>
      <point x="392" y="-49"/>
      <point x="353" y="-90"/>
    </contour>
  </outline>
</glyph>
<glyph name="germandbls.ss09" format="2">
  <advance width="710"/>
  <outline>
    <contour>
      <point x="674" y="137" type="curve" smooth="yes"/>
      <point x="674" y="34"/>
      <point x="586" y="-20"/>
      <point x="458" y="-20" type="curve" smooth="yes"/>
      <point x="348" y="-20"/>
      <point x="270" y="20"/>
      <point x="262" y="127" type="curve"/>
      <point x="432" y="127" type="line"/>
      <point x="434" y="116"/>
      <point x="441" y="110"/>
      <point x="456" y="110" type="curve" smooth="yes"/>
      <point x="478" y="110"/>
      <point x="484" y="123"/>
      <point x="484" y="137" type="curve" smooth="yes"/>
      <point x="484" y="217"/>
      <point x="284" y="248"/>
      <point x="284" y="375" type="curve" smooth="yes"/>
      <point x="284" y="459"/>
      <point x="373" y="470"/>
      <point x="373" y="555" type="curve" smooth="yes"/>
      <point x="373" y="595"/>
      <point x="354" y="621"/>
      <point x="317" y="621" type="curve" smooth="yes"/>
      <point x="274" y="621"/>
      <point x="249" y="585"/>
      <point x="249" y="497" type="curve" smooth="yes"/>
      <point x="249" y="0" type="line"/>
      <point x="59" y="0" type="line"/>
      <point x="59" y="535" type="line" smooth="yes"/>
      <point x="59" y="685"/>
      <point x="168" y="751"/>
      <point x="316" y="751" type="curve" smooth="yes"/>
      <point x="466" y="751"/>
      <point x="563" y="683"/>
      <point x="563" y="564" type="curve" smooth="yes"/>
      <point x="563" y="450"/>
      <point x="474" y="453"/>
      <point x="474" y="387" type="curve" smooth="yes"/>
      <point x="474" y="288"/>
      <point x="674" y="293"/>
    </contour>
  </outline>
</glyph>
<glyph name="ljecyr.ss08" format="2">
  <advance width="790"/>
  <outline>
    <component base="elcyr.ss08"/>
    <contour>
      <point x="378" y="315" type="line"/>
      <point x="378" y="185" type="line"/>
      <point x="510" y="185" type="line" smooth="yes"/>
      <point x="536" y="185"/>
      <point x="558" y="183"/>
      <point x="558" y="158" type="curve" smooth="yes"/>
      <point x="558" y="133"/>
      <point x="536" y="130"/>
      <point x="510" y="130" type="curve" smooth="yes"/>
      <point x="457" y="130" type="line"/>
      <point x="352" y="0" type="line"/>
      <point x="565" y="0" type="line" smooth="yes"/>
      <point x="699" y="0"/>
      <point x="748" y="68"/>
      <point x="748" y="158" type="curve" smooth="yes"/>
      <point x="748" y="248"/>
      <point x="698" y="315"/>
      <point x="564" y="315" type="curve" smooth="yes"/>
    </contour>
  </outline>
</glyph>
<glyph name="one.ss09" format="2">
  <advance width="544"/>
  <outline>
    <contour>
      <point x="187" y="700" type="line"/>
      <point x="187" y="616"/>
      <point x="125.8" y="560"/>
      <point x="34" y="560" type="curve"/>
      <point x="34" y="420" type="line"/>
      <point x="122.8" y="420"/>
      <point x="182" y="460.4"/>
      <point x="182" y="521" type="curve"/>
      <point x="182" y="0" type="line"/>
      <point x="372" y="0" type="line"/>
      <point x="372" y="700" type="line"/>
    </contour>
    <contour>
      <point x="34" y="0" type="line"/>
      <point x="510" y="0" type="line"/>
      <point x="510" y="140" type="line"/>
      <point x="34" y="140" type="line"/>
    </contour>
  </outline>
</glyph>
<glyph name="plus.case" format="2">
  <advance width="566"/>
  <outline>
    <contour>
      <point x="260" y="342" type="line"/>
      <point x="260" y="135" type="line"/>
      <point x="296" y="135" type="line"/>
      <point x="296" y="342" type="line"/>
      <point x="516" y="342" type="line"/>
      <point x="516" y="378" type="line"/>
      <point x="296" y="378" type="line"/>
      <point x="296" y="585" type="line"/>
      <point x="260" y="585" type="line"/>
      <point x="260" y="378" type="line"/>
      <point x="50" y="378" type="line"/>
      <point x="50" y="342" type="line"/>
    </contour>
  </outline>
</glyph>
<glyph name="question.ss10" format="2">
  <advance width="551"/>
  <outline>
    <contour>
      <point x="246" y="-20" type="curve" smooth="yes"/>
      <point x="305" y="-20"/>
      <point x="349" y="26"/>
      <point x="349" y="81" type="curve" smooth="yes"/>
      <point x="349" y="140"/>
      <point x="305" y="184"/>
      <point x="246" y="184" type="curve" smooth="yes"/>
      <point x="188" y="184"/>
      <point x="145" y="140"/>
      <point x="145" y="81" type="curve" smooth="yes"/>
      <point x="145" y="26"/>
      <point x="188" y="-20"/>
    </contour>
    <contour>
      <point x="270" y="626" type="curve" smooth="yes"/>
      <point x="194" y="626"/>
      <point x="144" y="577"/>
      <point x="72" y="461" type="curve"/>
      <point x="27" y="625" type="line"/>
      <point x="83" y="709"/>
      <point x="168" y="767"/>
      <point x="290" y="767" type="curve" smooth="yes"/>
      <point x="427" y="767"/>
      <point x="519" y="688"/>
      <point x="519" y="567" type="curve" smooth="yes"/>
      <point x="519" y="480"/>
      <point x="448" y="390"/>
      <point x="342" y="334" type="curve"/>
      <point x="342" y="250" type="line"/>
      <point x="152" y="250" type="line"/>
      <point x="152" y="365" type="line"/>
      <point x="275" y="430"/>
      <point x="329" y="491"/>
      <point x="329" y="560" type="curve" smooth="yes"/>
      <point x="329" y="602"/>
      <point x="312" y="626"/>
    </contour>
  </outline>
</glyph>
<glyph name="r.ss10" format="2">
  <advance width="527"/>
  <anchor x="300" y="520" name="top"/>
  <anchor x="145" y="-20" name="bottom"/>
  <outline>
    <contour>
      <point x="49" y="0" type="line"/>
      <point x="239" y="0" type="line"/>
      <point x="239" y="206.441" type="line" smooth="yes"/>
      <point x="239" y="290.583"/>
      <point x="266.08" y="369"/>
      <point x="313.05" y="369" type="curve" smooth="yes"/>
      <point x="332.69" y="369"/>
      <point x="345.28" y="350.124"/>
      <point x="343.63" y="305.27" type="curve"/>
      <point x="522.16" y="340.9" type="line"/>
      <point x="533.57" y="475.71"/>
      <point x="458.09" y="520"/>
      <point x="378.9" y="520" type="curve" smooth="yes"/>
      <point x="311.35" y="520"/>
      <point x="266.05" y="487.77"/>
      <point x="239" y="430.19" type="curve"/>
      <point x="239" y="500" type="line"/>
      <point x="49" y="500" type="line"/>
    </contour>
  </outline>
</glyph>
<glyph name="s.ss09" format="2">
  <advance width="510"/>
  <anchor x="265" y="-20" name="bottom"/>
  <anchor x="245" y="520" name="top"/>
  <outline>
    <contour>
      <point x="286" y="136.433" type="curve" smooth="yes"/>
      <point x="286" y="117.117"/>
      <point x="273" y="110"/>
      <point x="254" y="110" type="curve" smooth="yes"/>
      <point x="229" y="110"/>
      <point x="213" y="124.342"/>
      <point x="213" y="150" type="curve"/>
      <point x="30" y="150" type="line"/>
      <point x="40" y="31.3018"/>
      <point x="138" y="-20"/>
      <point x="259" y="-20" type="curve" smooth="yes"/>
      <point x="393" y="-20"/>
      <point x="474" y="43"/>
      <point x="474" y="150" type="curve" smooth="yes"/>
      <point x="474" y="244"/>
      <point x="412" y="309"/>
      <point x="271" y="327" type="curve" smooth="yes"/>
      <point x="252" y="329"/>
      <point x="220" y="332.05"/>
      <point x="220" y="362.55" type="curve" smooth="yes"/>
      <point x="220" y="379.833"/>
      <point x="231" y="390"/>
      <point x="252" y="390" type="curve" smooth="yes"/>
      <point x="278" y="390"/>
      <point x="288" y="372.564"/>
      <point x="291" y="350" type="curve"/>
      <point x="474" y="350" type="line"/>
      <point x="467" y="460.651"/>
      <point x="368" y="520"/>
      <point x="247" y="520" type="curve" smooth="yes"/>
      <point x="121" y="520"/>
      <point x="30" y="455"/>
      <point x="30" y="348" type="curve" smooth="yes"/>
      <point x="30" y="256"/>
      <point x="96" y="188"/>
      <point x="220" y="176" type="curve" smooth="yes"/>
      <point x="268" y="171"/>
      <point x="286" y="159.817"/>
    </contour>
  </outline>
</glyph>
<glyph name="s.ss10" format="2">
  <advance width="522"/>
  <anchor x="255" y="520" name="top"/>
  <anchor x="265" y="-20" name="bottom"/>
  <outline>
    <contour>
      <point x="266" y="-20" type="curve" smooth="yes"/>
      <point x="404" y="-20"/>
      <point x="486" y="43"/>
      <point x="486" y="151" type="curve" smooth="yes"/>
      <point x="486" y="258.058"/>
      <point x="385.265" y="290.251"/>
      <point x="309.93" y="314.327" type="curve" smooth="yes"/>
      <point x="264.935" y="328.706"/>
      <point x="229" y="340.19"/>
      <point x="229" y="362.661" type="curve" smooth="yes"/>
      <point x="229" y="379"/>
      <point x="248" y="390"/>
      <point x="281.634" y="390" type="curve" smooth="yes"/>
      <point x="339" y="390"/>
      <point x="382" y="358"/>
      <point x="432" y="280" type="curve"/>
      <point x="475" y="430" type="line"/>
      <point x="450" y="470"/>
      <point x="371" y="520"/>
      <point x="254" y="520" type="curve" smooth="yes"/>
      <point x="110" y="520"/>
      <point x="38" y="444"/>
      <point x="38" y="346" type="curve" smooth="yes"/>
      <point x="38" y="233.88"/>
      <point x="144.71" y="204.387"/>
      <point x="220.608" y="183.409" type="curve" smooth="yes"/>
      <point x="262.497" y="171.832"/>
      <point x="295" y="162.848"/>
      <point x="295" y="144" type="curve" smooth="yes"/>
      <point x="295" y="123"/>
      <point x="275" y="110"/>
      <point x="235" y="110" type="curve" smooth="yes"/>
      <point x="175" y="110"/>
      <point x="126" y="140"/>
      <point x="73" y="220" type="curve"/>
      <point x="30" y="70" type="line"/>
      <point x="80" y="1"/>
      <point x="187" y="-20"/>
    </contour>
  </outline>
</glyph>
<glyph name="shchacyr.loclBGR" format="2">
  <advance width="964"/>
  <outline>
    <component base="shacyr.loclBGR" xOffset="-13"/>
    <contour>
      <point x="759" y="0" type="line"/>
      <point x="827" y="0"/>
      <point x="812" y="-72"/>
      <point x="812" y="-140" type="curve"/>
      <point x="951" y="-140" type="line"/>
      <point x="951" y="74"/>
      <point x="930" y="131"/>
      <point x="831" y="131" type="curve"/>
    </contour>
  </outline>
</glyph>
<glyph name="six.ss12.osf" format="2">
  <advance width="650"/>
  <outline>
    <contour>
      <point x="335" y="326" type="curve" smooth="yes"/>
      <point x="401" y="326"/>
      <point x="429" y="288"/>
      <point x="429" y="228" type="curve" smooth="yes"/>
      <point x="429" y="163"/>
      <point x="396" y="121"/>
      <point x="333" y="121" type="curve" smooth="yes"/>
      <point x="269" y="121"/>
      <point x="234" y="164"/>
      <point x="234" y="225" type="curve" smooth="yes"/>
      <point x="234" y="285"/>
      <point x="267" y="326"/>
    </contour>
    <contour>
      <point x="367" y="579" type="curve" smooth="yes"/>
      <point x="450" y="579"/>
      <point x="536" y="548"/>
      <point x="607" y="472" type="curve"/>
      <point x="620" y="596" type="line"/>
      <point x="543" y="679"/>
      <point x="454" y="720"/>
      <point x="344" y="720" type="curve" smooth="yes"/>
      <point x="152" y="720"/>
      <point x="33" y="577"/>
      <point x="33" y="346" type="curve" smooth="yes"/>
      <point x="33" y="118"/>
      <point x="151" y="-20"/>
      <point x="345" y="-20" type="curve" smooth="yes"/>
      <point x="515" y="-20"/>
      <point x="620" y="88"/>
      <point x="620" y="226" type="curve" smooth="yes"/>
      <point x="620" y="363"/>
      <point x="515" y="459"/>
      <point x="363" y="459" type="curve" smooth="yes"/>
      <point x="284" y="459"/>
      <point x="221" y="433"/>
      <point x="182" y="396" type="curve"/>
      <point x="188" y="515"/>
      <point x="265" y="579"/>
    </contour>
  </outline>
</glyph>
<glyph name="sterling.ss12" format="2">
  <advance width="600"/>
  <outline>
    <contour>
      <point x="31" y="381" type="line"/>
      <point x="31" y="256" type="line"/>
      <point x="461" y="256" type="line"/>
      <point x="461" y="381" type="line"/>
    </contour>
    <contour>
      <point x="335.289" y="580" type="curve" smooth="yes"/>
      <point x="403.515" y="580"/>
      <point x="465.721" y="552"/>
      <point x="550" y="469" type="curve"/>
      <point x="562" y="595" type="line"/>
      <point x="484.154" y="681"/>
      <point x="402.317" y="720"/>
      <point x="306.507" y="720" type="curve" smooth="yes"/>
      <point x="160.796" y="720"/>
      <point x="58" y="630"/>
      <point x="58" y="516" type="curve" smooth="yes"/>
      <point x="58" y="456"/>
      <point x="86.4912" y="405"/>
      <point x="114" y="352" type="curve"/>
      <point x="315" y="354" type="line"/>
      <point x="280.485" y="396"/>
      <point x="248" y="443"/>
      <point x="248" y="505" type="curve" smooth="yes"/>
      <point x="248" y="552"/>
      <point x="266.06" y="580"/>
    </contour>
    <contour>
      <point x="401" y="120" type="curve" smooth="yes"/>
      <point x="354" y="120"/>
      <point x="361" y="159"/>
      <point x="315" y="154" type="curve"/>
      <point x="359" y="196"/>
      <point x="349" y="234"/>
      <point x="339" y="280" type="curve"/>
      <point x="148" y="279" type="line"/>
      <point x="182" y="171"/>
      <point x="147" y="133"/>
      <point x="50" y="80" type="curve"/>
      <point x="50" y="-10" type="line"/>
      <point x="120" y="41"/>
      <point x="153" y="50"/>
      <point x="180" y="50" type="curve" smooth="yes"/>
      <point x="256" y="50"/>
      <point x="254" y="-20"/>
      <point x="357" y="-20" type="curve" smooth="yes"/>
      <point x="440" y="-20"/>
      <point x="511" y="26"/>
      <point x="560" y="80" type="curve"/>
      <point x="549" y="203" type="line"/>
      <point x="496" y="144"/>
      <point x="439" y="120"/>
    </contour>
  </outline>
</glyph>
<glyph name="three.osf" format="2">
  <advance width="578"/>
  <outline>
    <contour>
      <point x="24" y="-66" type="line"/>
      <point x="87" y="-133"/>
      <point x="173" y="-169"/>
      <point x="289" y="-169" type="curve" smooth="yes"/>
      <point x="456" y="-169"/>
      <point x="543" y="-94"/>
      <point x="543" y="38" type="curve" smooth="yes"/>
      <point x="543" y="172"/>
      <point x="454" y="236"/>
      <point x="192" y="216" type="curve"/>
      <point x="192" y="126" type="line"/>
      <point x="303" y="126"/>
      <point x="353" y="102"/>
      <point x="353" y="43" type="curve" smooth="yes"/>
      <point x="353" y="-4"/>
      <point x="321" y="-29"/>
      <point x="268" y="-29" type="curve" smooth="yes"/>
      <point x="219" y="-29"/>
      <point x="179" y="-10"/>
      <point x="132" y="42" type="curve"/>
    </contour>
    <contour>
      <point x="260" y="430" type="curve" smooth="yes"/>
      <point x="304" y="430"/>
      <point x="330" y="407"/>
      <point x="330" y="364" type="curve" smooth="yes"/>
      <point x="330" y="311"/>
      <point x="290" y="292"/>
      <point x="192" y="292" type="curve"/>
      <point x="192" y="202" type="line"/>
      <point x="420" y="192"/>
      <point x="520" y="253"/>
      <point x="520" y="375" type="curve" smooth="yes"/>
      <point x="520" y="477"/>
      <point x="449" y="570"/>
      <point x="281" y="570" type="curve" smooth="yes"/>
      <point x="147" y="570"/>
      <point x="64" y="511"/>
      <point x="27" y="474" type="curve"/>
      <point x="135" y="366" type="line"/>
      <point x="165" y="396"/>
      <point x="206" y="430"/>
    </contour>
  </outline>
</glyph>
<glyph name="three.ss09" format="2">
  <advance width="550"/>
  <outline>
    <contour>
      <point x="192" y="337" type="curve"/>
      <point x="192" y="427" type="line"/>
      <point x="276" y="427"/>
      <point x="309" y="448.543"/>
      <point x="309" y="507.189" type="curve" smooth="yes"/>
      <point x="309" y="549.079"/>
      <point x="292" y="579"/>
      <point x="261" y="579" type="curve" smooth="yes"/>
      <point x="226" y="579"/>
      <point x="207" y="547"/>
      <point x="197" y="502" type="curve"/>
      <point x="7" y="502" type="line"/>
      <point x="29" y="627"/>
      <point x="109" y="720"/>
      <point x="267" y="720" type="curve" smooth="yes"/>
      <point x="425" y="720"/>
      <point x="500" y="621.575"/>
      <point x="500" y="512.453" type="curve" smooth="yes"/>
      <point x="500" y="390.492"/>
      <point x="406" y="337"/>
    </contour>
    <contour>
      <point x="271" y="-20" type="curve" smooth="yes"/>
      <point x="112" y="-20"/>
      <point x="32" y="73"/>
      <point x="10" y="198" type="curve"/>
      <point x="200" y="198" type="line"/>
      <point x="211" y="150"/>
      <point x="232" y="121"/>
      <point x="271" y="121" type="curve" smooth="yes"/>
      <point x="307" y="121"/>
      <point x="329" y="150.31"/>
      <point x="329" y="200.724" type="curve" smooth="yes"/>
      <point x="329" y="267.552"/>
      <point x="290" y="291"/>
      <point x="192" y="291" type="curve"/>
      <point x="192" y="381" type="line"/>
      <point x="420" y="381"/>
      <point x="520" y="325.543"/>
      <point x="520" y="199.697" type="curve" smooth="yes"/>
      <point x="520" y="83.4495"/>
      <point x="434" y="-20"/>
    </contour>
  </outline>
</glyph>
<glyph name="three.ss10" format="2">
  <advance width="550"/>
  <outline>
    <contour>
      <point x="192" y="427" type="curve"/>
      <point x="192" y="337" type="line"/>
      <point x="406" y="337"/>
      <point x="500" y="390.492"/>
      <point x="500" y="514.592" type="curve" smooth="yes"/>
      <point x="500" y="621.575"/>
      <point x="431" y="720"/>
      <point x="275" y="720" type="curve" smooth="yes"/>
      <point x="151" y="720"/>
      <point x="62" y="662"/>
      <point x="6" y="578" type="curve"/>
      <point x="51" y="414" type="line"/>
      <point x="107" y="519"/>
      <point x="181" y="579"/>
      <point x="250" y="579" type="curve" smooth="yes"/>
      <point x="291" y="579"/>
      <point x="309" y="552.669"/>
      <point x="309" y="508.386" type="curve" smooth="yes"/>
      <point x="309" y="448.543"/>
      <point x="276" y="427"/>
    </contour>
    <contour>
      <point x="281" y="-19" type="curve" smooth="yes"/>
      <point x="442" y="-19"/>
      <point x="520" y="84.4667"/>
      <point x="520" y="197.533" type="curve" smooth="yes"/>
      <point x="520" y="325.533"/>
      <point x="420" y="381"/>
      <point x="192" y="381" type="curve"/>
      <point x="192" y="291" type="line"/>
      <point x="290" y="291"/>
      <point x="329" y="267.552"/>
      <point x="329" y="201.897" type="curve" smooth="yes"/>
      <point x="329" y="150.31"/>
      <point x="304" y="121"/>
      <point x="259" y="121" type="curve" smooth="yes"/>
      <point x="187" y="121"/>
      <point x="121" y="185"/>
      <point x="61" y="286" type="curve"/>
      <point x="16" y="123" type="line"/>
      <point x="70" y="39"/>
      <point x="156" y="-19"/>
    </contour>
  </outline>
</glyph>
<glyph name="three.ss10.osf" format="2">
  <advance width="550"/>
  <outline>
    <contour>
      <point x="192" y="277" type="curve"/>
      <point x="192" y="187" type="line"/>
      <point x="406" y="187"/>
      <point x="500" y="240.492"/>
      <point x="500" y="364.592" type="curve" smooth="yes"/>
      <point x="500" y="471.575"/>
      <point x="431" y="570"/>
      <point x="275" y="570" type="curve" smooth="yes"/>
      <point x="151" y="570"/>
      <point x="62" y="512"/>
      <point x="6" y="428" type="curve"/>
      <point x="51" y="264" type="line"/>
      <point x="107" y="369"/>
      <point x="181" y="429"/>
      <point x="250" y="429" type="curve" smooth="yes"/>
      <point x="291" y="429"/>
      <point x="309" y="402.669"/>
      <point x="309" y="358.386" type="curve" smooth="yes"/>
      <point x="309" y="298.543"/>
      <point x="276" y="277"/>
    </contour>
    <contour>
      <point x="281" y="-169" type="curve" smooth="yes"/>
      <point x="442" y="-169"/>
      <point x="520" y="-65.5333"/>
      <point x="520" y="47.5333" type="curve" smooth="yes"/>
      <point x="520" y="175.533"/>
      <point x="420" y="231"/>
      <point x="192" y="231" type="curve"/>
      <point x="192" y="141" type="line"/>
      <point x="290" y="141"/>
      <point x="329" y="117.552"/>
      <point x="329" y="51.8965" type="curve" smooth="yes"/>
      <point x="329" y="0.310341"/>
      <point x="304" y="-29"/>
      <point x="259" y="-29" type="curve" smooth="yes"/>
      <point x="187" y="-29"/>
      <point x="121" y="35"/>
      <point x="61" y="136" type="curve"/>
      <point x="16" y="-27" type="line"/>
      <point x="70" y="-111"/>
      <point x="156" y="-169"/>
    </contour>
  </outline>
</glyph>
<glyph name="three.ss12.osf" format="2">
  <advance width="550"/>
  <outline>
    <contour>
      <point x="192" y="277" type="curve"/>
      <point x="192" y="187" type="line"/>
      <point x="406" y="187"/>
      <point x="500" y="250.492"/>
      <point x="500" y="372.453" type="curve" smooth="yes"/>
      <point x="500" y="481.575"/>
      <point x="426" y="570"/>
      <point x="279" y="570" type="curve" smooth="yes"/>
      <point x="176" y="570"/>
      <point x="101" y="525"/>
      <point x="31" y="446" type="curve"/>
      <point x="44" y="322" type="line"/>
      <point x="107" y="397"/>
      <point x="175" y="430"/>
      <point x="237" y="430" type="curve" smooth="yes"/>
      <point x="287" y="430"/>
      <point x="309" y="404.898"/>
      <point x="309" y="357.086" type="curve" smooth="yes"/>
      <point x="309" y="298.516"/>
      <point x="276" y="277"/>
    </contour>
    <contour>
      <point x="192" y="141" type="line"/>
      <point x="290" y="141"/>
      <point x="329" y="117.552"/>
      <point x="329" y="50.7241" type="curve" smooth="yes"/>
      <point x="329" y="-2.03448"/>
      <point x="305" y="-29"/>
      <point x="250" y="-29" type="curve" smooth="yes"/>
      <point x="185" y="-29"/>
      <point x="111" y="4"/>
      <point x="44" y="79" type="curve"/>
      <point x="31" y="-45" type="line"/>
      <point x="103" y="-124"/>
      <point x="182" y="-169"/>
      <point x="287" y="-169" type="curve" smooth="yes"/>
      <point x="442" y="-169"/>
      <point x="520" y="-75.5333"/>
      <point x="520" y="37.5333" type="curve" smooth="yes"/>
      <point x="520" y="165.533"/>
      <point x="420" y="231"/>
      <point x="192" y="231" type="curve"/>
    </contour>
  </outline>
</glyph>
<glyph name="tsecyr.loclBGR" format="2">
  <advance width="680"/>
  <outline>
    <component base="u.ss05" xOffset="12"/>
    <contour>
      <point x="475" y="0" type="line"/>
      <point x="542" y="0"/>
      <point x="528" y="-102"/>
      <point x="528" y="-140" type="curve"/>
      <point x="666" y="-140" type="line"/>
      <point x="666" y="74"/>
      <point x="645" y="130"/>
      <point x="545" y="130" type="curve"/>
    </contour>
  </outline>
</glyph>
<glyph name="two.ss09" format="2">
  <advance width="612"/>
  <outline>
    <contour>
      <point x="45" y="140" type="line"/>
      <point x="45" y="0" type="line"/>
      <point x="566" y="0" type="line"/>
      <point x="566" y="140" type="line"/>
    </contour>
    <contour>
      <point x="316" y="579" type="curve" smooth="yes"/>
      <point x="360" y="579"/>
      <point x="376" y="546.52"/>
      <point x="376" y="492" type="curve" smooth="yes"/>
      <point x="376" y="364.4"/>
      <point x="290" y="289"/>
      <point x="45" y="249" type="curve"/>
      <point x="45" y="104" type="line"/>
      <point x="443" y="181"/>
      <point x="565" y="281.47"/>
      <point x="565" y="472.687" type="curve" smooth="yes"/>
      <point x="565" y="634.735"/>
      <point x="477" y="719"/>
      <point x="325" y="719" type="curve" smooth="yes"/>
      <point x="160" y="719"/>
      <point x="73" y="626"/>
      <point x="49" y="502" type="curve"/>
      <point x="239" y="502" type="line"/>
      <point x="253" y="556"/>
      <point x="277" y="579"/>
    </contour>
  </outline>
</glyph>
<glyph name="two.ss12.osf" format="2">
  <advance width="612"/>
  <outline>
    <contour>
      <point x="45" y="135" type="line"/>
      <point x="45" y="0" type="line"/>
      <point x="566" y="0" type="line"/>
      <point x="566" y="135" type="line"/>
    </contour>
    <contour>
      <point x="269.879" y="430" type="curve" smooth="yes"/>
      <point x="338.214" y="430"/>
      <point x="356" y="404.589"/>
      <point x="356" y="360.777" type="curve" smooth="yes"/>
      <point x="356" y="267.895"/>
      <point x="275.196" y="210.939"/>
      <point x="45" y="189" type="curve"/>
      <point x="45" y="64" type="line"/>
      <point x="387.692" y="122.375"/>
      <point x="545" y="189.714"/>
      <point x="545" y="355.864" type="curve" smooth="yes"/>
      <point x="545" y="497.748"/>
      <point x="459.456" y="571"/>
      <point x="311.437" y="571" type="curve" smooth="yes"/>
      <point x="201.864" y="571"/>
      <point x="121.126" y="528"/>
      <point x="50" y="447" type="curve"/>
      <point x="63" y="323" type="line"/>
      <point x="125.719" y="398"/>
      <point x="197.799" y="430"/>
    </contour>
  </outline>
</glyph>
<glyph name="y.ss12" format="2">
  <advance width="615"/>
  <anchor x="307" y="520" name="top"/>
  <anchor x="550" y="-99" name="bottom"/>
  <outline>
    <contour>
      <point x="372" y="293" type="line"/>
      <point x="372" y="192.407"/>
      <point x="353" y="150"/>
      <point x="309" y="150" type="curve" smooth="yes"/>
      <point x="262" y="150"/>
      <point x="240" y="176.733"/>
      <point x="240" y="243.352" type="curve" smooth="yes"/>
      <point x="240" y="500" type="line"/>
      <point x="50" y="500" type="line"/>
      <point x="50" y="226" type="line" smooth="yes"/>
      <point x="50" y="86.0013"/>
      <point x="121.075" y="20"/>
      <point x="252" y="20" type="curve" smooth="yes"/>
      <point x="357" y="20"/>
      <point x="383" y="79"/>
      <point x="389" y="124" type="curve"/>
    </contour>
    <contour>
      <point x="296.735" y="-90" type="curve" smooth="yes"/>
      <point x="252.4" y="-90"/>
      <point x="233.18" y="-73.3341"/>
      <point x="231" y="-33" type="curve"/>
      <point x="48" y="-33" type="line"/>
      <point x="58.2228" y="-160.785"/>
      <point x="139.604" y="-220"/>
      <point x="305" y="-220" type="curve" smooth="yes"/>
      <point x="479.36" y="-220"/>
      <point x="562" y="-147.645"/>
      <point x="562" y="32" type="curve" smooth="yes"/>
      <point x="562" y="500" type="line"/>
      <point x="372" y="500" type="line"/>
      <point x="372" y="41" type="line" smooth="yes"/>
      <point x="372" y="-55.0139"/>
      <point x="351.899" y="-90"/>
    </contour>
  </outline>
</glyph>
